<?xml version="1.0" standalone="no"?>
<!DOCTYPE svg PUBLIC "-//W3C//DTD SVG 1.1//EN" "http://www.w3.org/Graphics/SVG/1.1/DTD/svg11.dtd" >
<svg xmlns="http://www.w3.org/2000/svg" xmlns:xlink="http://www.w3.org/1999/xlink" version="1.1">
<metadata>
Created by FontForge 20201107 at Tue Feb 19 22:19:38 2019
 By 
</metadata>
<defs>
<font id="Kazimir-Regular" horiz-adv-x="583" >
  <font-face 
    font-family="Kazimir"
    font-weight="400"
    font-stretch="normal"
    units-per-em="1000"
    panose-1="0 0 0 0 0 0 0 0 0 0"
    ascent="800"
    descent="-200"
    x-height="501"
    cap-height="690"
    bbox="-112 -315 943 959"
    underline-thickness="0"
    underline-position="0"
    unicode-range="U+0020-2013"
  />
<missing-glyph horiz-adv-x="500" 
 />
    <glyph glyph-name="_274" unicode="fb" horiz-adv-x="909" 
d="M638 21q114 0 117 232q0 32 -1.5 56t-8.5 57.5t-19 55t-35.5 37t-56.5 15.5t-58.5 -20.5t-38.5 -53t-19.5 -65t-6.5 -62.5v-48q0 -36 5.5 -68t18 -64.5t39 -52t64.5 -19.5zM501 764l10 -9v-63q0 -196 -15 -334q11 69 52 112t108 43q92 0 149.5 -80.5t57.5 -176.5
q-2 -99 -64.5 -183t-157.5 -84q-54 0 -94 28.5t-59 79.5l-61 -117h-18v741q-12 6 -26 9q-18 2 -31 2q-75 0 -106.5 -43t-31.5 -122v-66h127v-32h-127v-436h68v-33h-250v33h79v436h-79v32h80q0 118 55 191t169 73q24 0 47 -3q37 -7 50 -11q29 0 44 4q17 3 24 9z" />
    <glyph glyph-name="_275" unicode="fh" horiz-adv-x="947" 
d="M335 0v33h77v688q-14 6 -27 9q-18 2 -32 2q-138 0 -138 -167v-64h128v-32h-128v-436h68v-33h-250v33h79v436h-79v32h80q0 118 55.5 191t169.5 73q45 0 98 -15q32 2 45 4q17 3 24 10l10 -9v-158q0 -85 -13 -222q14 65 57 101.5t108 36.5q174 0 174 -200v-280h78v-33h-256
v33h75v273q0 155 -110 155q-113 0 -113 -174v-254h75v-33h-255z" />
    <glyph glyph-name="_276" unicode="fk" horiz-adv-x="882" 
d="M335 0v33h77v688q-14 6 -27 9q-18 2 -32 2q-138 0 -138 -168v-63h128v-32h-128v-436h68v-33h-250v33h79v436h-79v32h80q0 118 55.5 191t169.5 73q45 0 98 -15q32 2 45 4q17 3 24 10l10 -9v-544l204 258h-94v32h224v-32h-82l-127 -161l187 -275h51v-33h-225v33h56
l-138 203l-56 -71v-132h63v-33h-243z" />
    <glyph glyph-name="_277" unicode="fi" horiz-adv-x="625" 
d="M216 469v-436h67v-33h-250v33h80v436h-80v32h81q0 117 55 190.5t168 73.5q73 0 128 -34t55 -102q0 -32 -17.5 -49.5t-48.5 -17.5q-30 0 -48 15.5t-18 44.5q0 57 68 66q-24 44 -98 44q-142 0 -142 -165v-66h117q110 0 136 3q23 1 33 11l12 -9v-473h80v-33h-251v33h68v436
h-195z" />
    <glyph glyph-name="_278" unicode="fl" horiz-adv-x="622" 
d="M215 469v-436h68v-33h-250v33h79v436h-79v32h80q0 118 55.5 191t169.5 73q45 0 98 -15q32 2 45 4q17 3 24 10l10 -9v-722h80v-33h-252v33h69v688q-30 11 -59 11q-138 0 -138 -167v-64h128v-32h-128z" />
    <glyph glyph-name=".notdef" horiz-adv-x="500" 
 />
    <glyph glyph-name=".null" horiz-adv-x="0" 
 />
    <glyph glyph-name="nonmarkingreturn" horiz-adv-x="333" 
 />
    <glyph glyph-name="uni0020" unicode=" " horiz-adv-x="250" 
 />
    <glyph glyph-name="uni0021" unicode="!" horiz-adv-x="271" 
d="M188 538q-36 -187 -36 -344h-30q0 166 -38 346q-10 49 -11 59q-3 17 -3 27q0 32 17 53.5t48 21.5t48.5 -21.5t17.5 -53.5q0 -6 -2 -28q-1 -3 -2.5 -13t-4 -22t-4.5 -25zM136 127q30 0 50 -20t20 -50q0 -29 -20.5 -48.5t-49.5 -19.5q-34 0 -51 20q-19 19 -19 48
q0 31 19 50.5t51 19.5z" />
    <glyph glyph-name="uni002C" unicode="," horiz-adv-x="254" 
d="M199 44q0 -147 -114 -239l-27 23q35 29 60 73.5t29 88.5q-5 0 -10 -1q-42 0 -62 21q-20 20 -20 49q0 32 20 52t52 20q72 0 72 -87z" />
    <glyph glyph-name="uni002D" unicode="-" horiz-adv-x="388" 
d="M343 326v-36h-298v36h298z" />
    <glyph glyph-name="uni002E" unicode="." horiz-adv-x="254" 
d="M127 131q32 0 52 -20t20 -52q0 -31 -20.5 -50.5t-51.5 -19.5q-30 0 -51 20t-21 50q0 32 20 52t52 20z" />
    <glyph glyph-name="uni0030" unicode="0" horiz-adv-x="566" 
d="M529 346q0 -55 -15 -115t-44 -115.5t-78 -91t-109 -35.5q-59 0 -108 35.5t-78 90t-44.5 115t-15.5 116.5t15 115.5t44 114.5t78 90t109 35t109 -35t78 -90t44 -114.5t15 -115.5zM283 669q-73 0 -101 -70q-28 -69 -28 -253q0 -179 29 -252q28 -73 100 -73t101 71
q28 69 28 254q0 183 -28 252q-29 71 -101 71z" />
    <glyph glyph-name="uni0031" unicode="1" horiz-adv-x="424" 
d="M266 33h125v-33h-362v33h130v588h-130v32q184 0 231 61l20 -5q-14 -34 -14 -127v-549z" />
    <glyph glyph-name="uni0032" unicode="2" horiz-adv-x="515" 
d="M482 227l-26 -227h-422v39q201 211 249 268q51 59 75 95q-43 -50 -120 -50q-82 0 -148 48t-66 127q0 57 38.5 98.5t90 58.5t107.5 17q88 0 148 -45t60 -129q0 -28 -15 -60t-30 -51t-40 -48q-6 -8 -39 -47q-9 -10 -40 -43.5t-50 -54.5q-70 -77 -72 -79q-8 -9 -24.5 -27
t-24.5 -27h183q79 0 101 17q20 17 26 66l6 54h33zM246 669q-56 0 -82.5 -41.5t-28.5 -101.5q-1 -68 30 -105q30 -38 83 -38q56 0 83 42t27 101t-28 101t-84 42z" />
    <glyph glyph-name="uni0033" unicode="3" horiz-adv-x="522" 
d="M476 204q0 -100 -65.5 -157.5t-166.5 -57.5q-89 0 -148 44.5t-59 130.5q0 32 19.5 54t51.5 22q30 0 48 -19t18 -50q0 -64 -84 -68q31 -81 137 -81q63 0 99 49q35 49 34 133q-1 69 -31.5 123.5t-93.5 54.5q-35 0 -63 -21l-14 16l200 223h-134q-42 0 -68 -2q-18 -1 -30 -8
q-16 -7 -22 -26q-6 -20 -6 -62v-27h-33v215h389v-34l-215 -239q110 -13 173.5 -61.5t63.5 -151.5z" />
    <glyph glyph-name="uni0034" unicode="4" horiz-adv-x="531" 
d="M405 33h85v-33h-291v33h98v154h-286v18l358 497h36v-482h85v-33h-85v-154zM297 548l-232 -328h232v328z" />
    <glyph glyph-name="uni0035" unicode="5" horiz-adv-x="522" 
d="M466 226q0 -104 -67 -170.5t-171 -66.5q-83 0 -137.5 39.5t-54.5 118.5q0 32 19.5 53.5t51.5 21.5q30 0 48 -19t18 -49q0 -33 -24.5 -50t-58.5 -19q14 -32 51 -47.5t77 -15.5q41 0 69 17.5t41 49.5t17.5 63.5t4.5 71.5q0 193 -133 193q-46 0 -78.5 -24t-46.5 -68h-27
l40 365h225q38 0 56 15.5t22 52.5l2 17h32l-23 -175h-289l-22 -205q45 60 135 60q100 0 161.5 -64t61.5 -165z" />
    <glyph glyph-name="uni0036" unicode="6" horiz-adv-x="533" 
d="M290 419q85 0 145 -65t60 -150q0 -88 -68 -151.5t-156 -63.5q-62 0 -109 29t-73.5 77t-39 102t-12.5 112q0 62 15.5 127.5t46 126t83.5 99.5t120 39q64 0 111.5 -33.5t47.5 -94.5q0 -31 -17.5 -50.5t-48.5 -19.5t-50.5 17.5t-19.5 48.5q0 32 19.5 48.5t51.5 18.5
q-35 35 -99 35q-29 0 -52 -11t-38 -28t-26 -43t-16.5 -50t-9 -55.5t-4 -52.5t-0.5 -48v-58q39 94 139 94zM271 384q-34 0 -57.5 -17t-35 -46t-16 -57t-4.5 -60t4.5 -60.5t16 -58t35 -47t57.5 -17.5q32 0 55.5 18t35 47.5t16.5 58.5t5 59q0 44 -7.5 80.5t-34 68t-70.5 31.5z
" />
    <glyph glyph-name="uni0037" unicode="7" horiz-adv-x="456" 
d="M247 40q-8 -27 -22 -38q-14 -13 -38 -13q-29 0 -42 15q-15 14 -15 41q0 17 7 35q9 22 35 64q45 78 71 136q70 172 94 237q17 50 27 83h-173q-42 0 -68 -2q-43 -7 -52 -34q-6 -20 -6 -62v-27h-33v215h392v-29q-7 -21 -27 -79q-10 -27 -43 -118q-8 -24 -21 -59
q-6 -17 -9 -27q-55 -160 -69 -285q-1 -23 -8 -53z" />
    <glyph glyph-name="uni0038" unicode="8" horiz-adv-x="552" 
d="M515 194q0 -82 -68 -144q-67 -61 -171 -61t-171 61q-68 62 -68 144q0 77 50.5 129t128.5 70q-64 14 -107 51.5t-43 97.5q0 74 65 116.5t144 42.5t145 -42t66 -117q0 -61 -42.5 -98t-107.5 -51q79 -18 129 -70t50 -129zM179 542q0 -55 23 -94.5t74 -39.5t74 39.5t23 94.5
q0 54 -23.5 90.5t-74.5 36.5q-50 0 -73 -37t-23 -90zM154 194q-1 -79 31 -127q31 -46 91 -46t91 46q32 48 31 127q-1 47 -9.5 84t-37 67.5t-75.5 30.5q-46 0 -74.5 -30.5t-37.5 -68t-10 -83.5z" />
    <glyph glyph-name="uni0039" unicode="9" horiz-adv-x="537" 
d="M266 669q-31 0 -54 -18.5t-35 -47.5t-17.5 -58.5t-5.5 -58.5q0 -30 5 -58.5t17 -57.5t35 -46.5t55 -17.5q34 0 57.5 17t35 46t16 57t4.5 60q0 31 -5 60t-16 58.5t-35 47t-57 17.5zM499 363q0 -52 -7 -101.5t-25 -100t-45.5 -88t-72.5 -61t-102 -23.5q-75 0 -127 33.5
t-52 105.5q0 32 19 51t50 19t49 -18q17 -20 17 -49q0 -31 -21 -48t-53 -19q30 -45 110 -45q79 0 111 60q31 59 31 210v72q-32 -90 -141 -90q-85 0 -141.5 64t-56.5 151q0 88 68 151.5t156 63.5q54 0 96 -20.5t67.5 -53.5t41.5 -79t22 -90.5t6 -94.5z" />
    <glyph glyph-name="uni003A" unicode=":" horiz-adv-x="251" 
d="M126 449q32 0 52 -20q18 -21 18 -51q0 -31 -19 -50t-51 -19q-31 0 -51 19t-20 50q0 32 19.5 51.5t51.5 19.5zM126 129q32 0 52 -20q18 -21 18 -51q0 -31 -19 -50t-51 -19q-31 0 -51 19t-20 50q0 32 19.5 51.5t51.5 19.5z" />
    <glyph glyph-name="uni003B" unicode=";" horiz-adv-x="251" 
d="M126 449q32 0 52 -20q18 -21 18 -51q0 -31 -19 -50t-51 -19q-31 0 -51 19t-20 50q0 32 19.5 51.5t51.5 19.5zM196 42q0 -146 -114 -237l-26 23q34 26 58.5 71.5t30.5 90.5q-5 0 -10 -1q-36 0 -58 17t-22 52q0 32 19.5 51.5t51.5 19.5q36 0 53 -24.5t17 -62.5z" />
    <glyph glyph-name="uni003F" unicode="?" horiz-adv-x="391" 
d="M295 232q-23 -56 -89 -56q-52 0 -83.5 28.5t-31.5 79.5q0 54 28 91t82 77q29 21 44 34t30.5 38t15.5 51q0 94 -104 94q-81 0 -107 -49q32 -4 52.5 -21.5t20.5 -47.5q0 -29 -17.5 -46.5t-46.5 -17.5q-32 0 -50 19t-18 51q0 69 52 106.5t124 37.5q80 0 128 -38t48 -115
q0 -28 -9 -52t-29 -45.5t-35 -34.5t-43 -34q-60 -45 -76 -69q-18 -25 -18 -52q0 -51 53 -51q40 0 52 34t-19 74l19 15q24 -19 31 -46t-4 -55zM194 127q31 0 50.5 -19.5t19.5 -50.5q0 -30 -20 -49t-50 -19q-34 0 -51 20q-19 19 -19 48q0 31 19 50.5t51 19.5z" />
    <glyph glyph-name="uni0041" unicode="A" horiz-adv-x="600" 
d="M261 535l-95 -281h190zM207 33v-33h-219v33h64l229 667h36l227 -667h69v-33h-301v33h119l-64 188h-212l-64 -188h116z" />
    <glyph glyph-name="uni0042" unicode="B" horiz-adv-x="609" 
d="M309 0h-267v33h82v624h-82v33h212q289 0 289 -171q0 -67 -44.5 -110.5t-112.5 -53.5q82 -12 136 -52.5t54 -114.5q0 -188 -267 -188zM429 518q0 77 -43 108t-124 31h-31v-290h63q135 0 135 151zM459 189q0 148 -159 148h-69v-304h67q84 0 122.5 36.5t38.5 119.5z" />
    <glyph glyph-name="uni0043" unicode="C" horiz-adv-x="591" 
d="M531 -10h-18l-40 38q-60 -39 -138 -39q-91 0 -160 54.5t-102.5 134.5t-33.5 168q0 87 34 167t103.5 134t157.5 54q86 0 134 -37l40 36h18v-230h-33q0 87 -35.5 142t-117.5 55q-183 0 -183 -321q0 -323 183 -323q84 0 121 56t37 145h33v-234z" />
    <glyph glyph-name="uni0044" unicode="D" horiz-adv-x="676" 
d="M293 0h-251v33h82v624h-82v33h251q144 0 244 -100.5t100 -243.5t-100 -244.5t-244 -101.5zM272 657h-41v-624h41q246 0 246 313q0 52 -7.5 96.5t-25 84.5t-45.5 68.5t-70.5 45t-97.5 16.5z" />
    <glyph glyph-name="uni0045" unicode="E" 
d="M537 224v-224h-495v33h82v624h-82v33h477v-220h-33v42q0 83 -35 114t-120 31h-100v-290h145v77h37v-195h-37v86h-145v-302h138q79 0 107 36t28 119v36h33z" />
    <glyph glyph-name="uni0046" unicode="F" horiz-adv-x="543" 
d="M231 33h118v-33h-307v33h82v624h-82v33h472v-220h-32v42q0 83 -36 114t-121 31h-94v-290h127v77h38v-199h-38v90h-127v-302z" />
    <glyph glyph-name="uni0047" unicode="G" horiz-adv-x="646" 
d="M552 285v-295h-19l-48 37q-62 -38 -146 -38q-91 0 -161 54t-104.5 134.5t-34.5 168.5t37 168.5t108.5 133.5t160.5 53q92 0 142 -38l40 37h17v-230h-32q0 89 -38.5 143t-123.5 54q-193 0 -193 -321q0 -35 2.5 -67t9 -71t20 -70.5t33.5 -58t51 -41.5t71 -15q33 0 58 9
q24 7 45 25v228h-95v33h275v-33h-75z" />
    <glyph glyph-name="uni0048" unicode="H" horiz-adv-x="725" 
d="M311 33v-33h-269v33h82v624h-82v33h269v-33h-80v-289h263v289h-80v33h269v-33h-82v-624h82v-33h-269v33h80v303h-263v-303h80z" />
    <glyph glyph-name="uni0049" unicode="I" horiz-adv-x="364" 
d="M236 33h86v-33h-280v33h86v624h-86v33h280v-33h-86v-624z" />
    <glyph glyph-name="uni004A" unicode="J" horiz-adv-x="455" 
d="M445 657h-82v-420q0 -56 -9 -98t-30.5 -77.5t-61.5 -54t-97 -18.5q-69 0 -110.5 35.5t-41.5 103.5q0 36 17.5 59.5t52.5 23.5q29 0 49 -18q18 -19 18 -47q0 -67 -81 -71q5 -25 31 -38t55 -13q56 0 79 41q22 40 22 153v439h-109v33h298v-33z" />
    <glyph glyph-name="uni004B" unicode="K" horiz-adv-x="655" 
d="M231 259v-226h75v-33h-264v33h82v624h-82v33h277v-33h-88v-342l252 342h-90v33h224v-33h-86l-174 -238l246 -386h52v-33h-245v33h71l-194 302z" />
    <glyph glyph-name="uni004C" unicode="L" horiz-adv-x="541" 
d="M518 224v-224h-476v33h82v624h-82v33h298v-33h-109v-624h119q80 0 108 36t28 119v36h32z" />
    <glyph glyph-name="uni004D" unicode="M" horiz-adv-x="860" 
d="M166 613v-580h105v-33h-229v33h82v624h-82v33h199l190 -448l189 448h198v-33h-82v-624h82v-33h-289v33h99v579l-219 -521h-23z" />
    <glyph glyph-name="uni004E" unicode="N" horiz-adv-x="706" 
d="M166 583v-550h88v-33h-212v33h82v624h-82v33h175l331 -509v476h-87v33h211v-33h-81v-666h-38z" />
    <glyph glyph-name="uni004F" unicode="O" horiz-adv-x="656" 
d="M328 701q93 0 160.5 -53.5t98 -132.5t30.5 -170t-30.5 -170t-98 -132.5t-160.5 -53.5q-92 0 -160 54t-98.5 133t-30.5 169t30.5 169t98.5 133t160 54zM328 668q-39 0 -69 -15t-48 -43t-29.5 -58t-16.5 -71t-6.5 -70t-1.5 -66t1.5 -66t6.5 -70t16.5 -71t29.5 -58t48 -43
t69 -15t69.5 15t48 43t29 57.5t16.5 71t6.5 70t1.5 66.5t-1.5 66.5t-6.5 70t-16.5 71t-29 57.5t-48 43t-69.5 15z" />
    <glyph glyph-name="uni0050" unicode="P" horiz-adv-x="579" 
d="M349 33v-33h-307v33h82v624h-82v33h220q54 0 101 -8.5t91.5 -29t70.5 -61.5t26 -98q0 -46 -17 -82.5t-45 -59t-66 -37.5t-76.5 -21t-81.5 -6h-34v-254h118zM436 492q0 87 -41.5 126t-128.5 39h-35v-337h37q88 0 128 42t40 130z" />
    <glyph glyph-name="uni0051" unicode="Q" horiz-adv-x="656" 
d="M516 -141q-54 0 -79.5 32t-40.5 92q-14 9 -37 7q-11 -1 -31 -1q-92 0 -160 54t-98.5 133t-30.5 169t30.5 169t98.5 133t160 54q93 0 160.5 -53.5t98 -132.5t30.5 -170t-34.5 -175.5t-102.5 -133.5q4 -14 7 -22q1 -4 9 -38q8 -38 20 -56q10 -15 28 -15q23 0 33 28
q10 27 10 89h30q0 -34 -3 -57.5t-12 -50.5t-31 -41t-55 -14zM328 668q-39 0 -69 -15t-48 -43t-29.5 -58t-16.5 -71t-6.5 -70t-1.5 -66q0 -196 57 -271q27 83 124 83q87 0 118 -60q43 74 43 248q0 38 -1.5 66.5t-6.5 70t-16.5 71t-29 57.5t-48 43t-69.5 15zM235 52
q39 -30 93 -30q16 0 29 3q13 1 27 6q-23 91 -77 91q-59 0 -72 -70z" />
    <glyph glyph-name="uni0052" unicode="R" horiz-adv-x="651" 
d="M545 -11q-44 0 -69 22.5t-42 65.5q-4 12 -23 79q-9 33 -14.5 52t-17.5 43t-26.5 37t-37.5 22t-54 9h-30v-286h112v-33h-301v33h82v624h-82v33h220q51 0 96.5 -7.5t91.5 -26t73.5 -56t27.5 -91.5q0 -74 -62 -120.5t-142 -55.5q121 -46 154 -100q13 -21 25 -72
q21 -90 31 -109q7 -15 22 -15q20 0 29 28q9 29 9 87h30q0 -33 -3 -57t-12.5 -51t-31.5 -41t-55 -14zM436 508q0 149 -170 149h-35v-306h33q172 0 172 157z" />
    <glyph glyph-name="uni0053" unicode="S" horiz-adv-x="501" 
d="M462 178q0 -88 -55 -138.5t-144 -50.5q-99 0 -167 52l-40 -51h-17v233h32q0 -86 51.5 -143t136.5 -57q64 0 100.5 31.5t36.5 94.5q0 46 -19.5 71.5t-62.5 45.5q-19 7 -88 27q-93 27 -138 75t-45 139q0 88 51.5 141t138.5 53q94 0 148 -51l36 50h18v-230h-33
q0 75 -44 135.5t-117 60.5q-62 0 -97.5 -31.5t-35.5 -92.5q0 -69 54 -103l30 -15t84 -30q103 -33 136 -72q50 -50 50 -144z" />
    <glyph glyph-name="uni0054" unicode="T" horiz-adv-x="565" 
d="M440 33v-33h-315v33h104v624h-38q-81 0 -110.5 -32t-29.5 -113v-42h-32v220h527v-220h-32v42q0 82 -29.5 113.5t-110.5 31.5h-38v-624h104z" />
    <glyph glyph-name="uni0055" unicode="U" horiz-adv-x="653" 
d="M628 657h-82v-425q0 -120 -45 -181.5t-160 -61.5q-123 0 -179 60t-56 184v424h-82v33h283v-33h-93v-432q0 -43 5.5 -75.5t20 -63t44.5 -47t74 -16.5q45 0 75.5 16.5t45 47.5t20 64t5.5 78v428h-93v33h217v-33z" />
    <glyph glyph-name="uni0056" unicode="V" 
d="M536 657l-228 -667h-36l-224 667h-78v33h313v-33h-126l167 -501l171 501h-112v33h230v-33h-77z" />
    <glyph glyph-name="uni0057" unicode="W" horiz-adv-x="815" 
d="M418 657l38 -120l45 120h-83zM536 -10l-120 378l-140 -378h-36l-201 667h-69v33h226v-33h-51l151 -503l102 272l-72 231h-68v33h351v-33h-75l-61 -164l109 -345l157 509h-68v33h174v-33h-68l-205 -667h-36z" />
    <glyph glyph-name="uni0058" unicode="X" horiz-adv-x="601" 
d="M211 33v-33h-205v33h66l177 307l-174 317h-69v33h274v-33h-90l129 -235l134 235h-74v33h189v-33h-72l-156 -272l193 -352h62v-33h-284v33h106l-147 268l-153 -268h94z" />
    <glyph glyph-name="uni0059" unicode="Y" horiz-adv-x="603" 
d="M452 33v-33h-283v33h87v281l-181 343h-70v33h286v-33h-105l155 -293l146 293h-87v33h198v-33h-68l-166 -334v-290h88z" />
    <glyph glyph-name="uni005A" unicode="Z" horiz-adv-x="527" 
d="M498 224v-224h-469v23l347 634h-160q-82 0 -113.5 -31.5t-31.5 -113.5v-42h-32v220h450v-23l-349 -634h191q79 0 107 36t28 119v36h32z" />
    <glyph glyph-name="uni0061" unicode="a" horiz-adv-x="554" 
d="M441 -11q-99 0 -104 117q-16 -54 -59.5 -85.5t-100.5 -31.5q-61 0 -98.5 28.5t-37.5 86.5q0 30 16 55.5t35.5 40.5t55 29.5t55 20.5t54.5 15l72 19v70q0 120 -105 120q-56 0 -95 -35q53 -16 53 -66q0 -30 -17.5 -47t-47.5 -17q-29 0 -46.5 17.5t-17.5 46.5q0 45 34 78.5
t78.5 47.5t87.5 14q179 0 179 -149v-279q0 -25 9 -38q7 -13 25 -13q50 0 50 118h30q0 -34 -3 -58.5t-13 -50.5t-32.5 -40t-56.5 -14zM148 120q0 -35 18 -55t52 -20q42 0 68.5 28.5t34.5 63t8 76.5v41l-61 -18q-55 -15 -87.5 -41.5t-32.5 -74.5z" />
    <glyph glyph-name="uni0062" unicode="b" horiz-adv-x="582" 
d="M311 21q114 0 117 232q0 32 -1.5 56t-8.5 57.5t-19 55t-35.5 37t-56.5 15.5q-43 0 -72.5 -36.5t-39.5 -79.5t-10 -85v-48q0 -35 5.5 -67t18 -65t39 -52.5t63.5 -19.5zM536 256q-2 -100 -64 -183.5t-158 -83.5q-53 0 -93.5 29t-59.5 79l-61 -117h-18v737h-78v33
q102 0 128 3q23 1 39 10l14 -9v-62q0 -174 -16 -334q13 70 53 112.5t108 42.5q92 0 149 -80.5t57 -176.5z" />
    <glyph glyph-name="uni0063" unicode="c" horiz-adv-x="490" 
d="M425 153l32 -7q-16 -74 -62.5 -115.5t-120.5 -41.5q-110 0 -169 73t-59 186q0 115 62 190t175 75q72 0 119.5 -38.5t47.5 -109.5q0 -30 -17 -49t-46 -19q-31 0 -49 17t-18 47t19.5 47.5t50.5 21.5q-24 50 -102 50q-30 0 -53 -10t-37 -29.5t-23.5 -41t-13.5 -50t-5.5 -51
t-1.5 -50.5q0 -38 5 -71.5t17 -70.5t39.5 -59t66.5 -22q60 0 93.5 33t49.5 95z" />
    <glyph glyph-name="uni0064" unicode="d" horiz-adv-x="606" 
d="M430 -14l-14 9v108q-40 -114 -153 -114q-92 0 -154 74q-63 74 -62 185q2 77 36 143t98 99q44 23 87 23q100 0 140 -82q-8 104 -8 195v91h-80v33q110 0 134 3q23 1 35 10l13 -9v-721h78v-33q-98 0 -150 -14zM155 253q-1 -115 29 -170q28 -54 92 -54q47 0 76.5 32.5
t38.5 72t9 86.5v49q0 207 -117 207q-125 0 -128 -223z" />
    <glyph glyph-name="uni0065" unicode="e" horiz-adv-x="519" 
d="M282 -11q-111 0 -173.5 75.5t-62.5 188.5q0 108 60.5 184t165.5 76q104 0 155 -66t51 -173q0 -2 -0.5 -7t-1.5 -7h-322v-11q0 -44 4 -77t17 -70t42 -57t73 -20q61 0 96.5 33t54.5 95l31 -7q-16 -71 -66.5 -114t-123.5 -43zM270 479q-35 0 -58.5 -17t-35 -48.5t-15.5 -58
t-6 -62.5h218q2 98 -24 142t-79 44z" />
    <glyph glyph-name="uni0066" unicode="f" horiz-adv-x="371" 
d="M213 33h99v-33h-279v33h78v436h-78v32h79q0 52 10 96.5t32 83.5t62 61.5t94 22.5q55 0 92 -30t37 -84q0 -67 -65 -67q-29 0 -46.5 15.5t-17.5 44.5q0 63 67 66q-17 22 -57 22q-34 0 -56.5 -13.5t-33 -38.5t-14 -49.5t-3.5 -58.5v-71h137v-32h-137v-436z" />
    <glyph glyph-name="uni0067" unicode="g" horiz-adv-x="526" 
d="M169 351q0 -56 22 -94t73 -38t73 38t22 94q0 132 -95 132t-95 -132zM264 92q246 0 246 -168q0 -40 -14 -72t-37 -52.5t-54.5 -34.5t-65.5 -19.5t-71 -5.5q-42 0 -80 6t-78.5 21t-64.5 46.5t-24 75.5q0 48 38.5 80.5t90.5 44.5q-92 15 -92 95q0 43 34 69t80 30
q-45 18 -75.5 57t-30.5 86q0 76 59.5 119t138.5 43q40 0 78 -12h184v-32l-126 3q62 -44 62 -121q0 -73 -61 -117t-137 -44q-72 0 -105 -11q-31 -12 -31 -38t29 -37q29 -12 107 -12zM117 -108q0 -61 45 -88.5t110 -27.5q69 0 118.5 27.5t49.5 90.5q0 34 -15.5 56.5
t-43.5 32.5t-53.5 13t-59.5 3l-75 2q-36 -11 -56 -40.5t-20 -68.5z" />
    <glyph glyph-name="uni0068" unicode="h" horiz-adv-x="648" 
d="M216 287v-254h75v-33h-255v33h78v684h-78v33q90 0 122 3q30 1 45 10l13 -9v-157q0 -39 -1 -60q-3 -62 -11 -162q14 65 56 101.5t108 36.5q175 0 175 -200v-280h77v-33h-255v33h75v273q0 155 -111 155q-113 0 -113 -174z" />
    <glyph glyph-name="uni0069" unicode="i" horiz-adv-x="327" 
d="M218 33h77v-33h-258v33h78v436h-78v32q101 0 128 3q26 1 39 11l14 -9v-473zM156 766q32 0 51.5 -18t19.5 -50q0 -30 -20 -49t-51 -19t-51 19t-20 49q0 32 19.5 50t51.5 18z" />
    <glyph glyph-name="uni006A" unicode="j" horiz-adv-x="297" 
d="M143 766q32 0 51.5 -18t19.5 -50q0 -30 -20 -49t-51 -19t-50.5 18.5t-19.5 49.5t19.5 49.5t50.5 18.5zM22 -260q-62 0 -98 33.5t-36 94.5q0 33 16.5 53t48.5 20q29 0 46.5 -17t17.5 -46q0 -60 -79 -64q19 -42 79 -42q49 0 69 42q19 41 19 145v510h-81v32q86 0 121 3
q33 1 49 11l14 -9v-473q0 -45 -3.5 -81t-15 -77.5t-31 -69.5t-54.5 -46.5t-82 -18.5z" />
    <glyph glyph-name="uni006B" unicode="k" horiz-adv-x="584" 
d="M216 165v-132h64v-33h-244v33h78v684h-78v33q98 0 125 3q25 1 42 10l13 -9v-543l204 258h-93v32h224v-32h-83l-126 -161l187 -275h51v-33h-225v33h55l-138 203z" />
    <glyph glyph-name="uni006C" unicode="l" horiz-adv-x="321" 
d="M294 33v-33h-258v33h78v684h-78v33q85 0 118 3q30 1 49 10l13 -9v-721h78z" />
    <glyph glyph-name="uni006D" unicode="m" horiz-adv-x="883" 
d="M278 33v-33h-241v33h78v436h-78v32q77 0 107 3q29 1 43 11l14 -9l-2 -125q9 63 46.5 97.5t100.5 34.5q119 0 137 -115q28 115 141 115q87 0 120.5 -45.5t33.5 -136.5v-298h77v-33h-240v33h60v291q0 31 -2 50.5t-9.5 43.5t-26 36t-47.5 12q-30 0 -49.5 -14t-28 -39
t-11.5 -47.5t-3 -52.5v-280h60v-33h-224v33h61v291q0 31 -2 50.5t-9.5 43.5t-26 36t-47.5 12q-92 0 -92 -153v-280h60z" />
    <glyph glyph-name="uni006E" unicode="n" horiz-adv-x="650" 
d="M218 287v-254h75v-33h-256v33h78v436h-78v32q89 0 115 3q24 1 35 11l14 -9v-143q9 70 54 110t115 40q174 0 174 -200v-280h77v-33h-255v33h75v273q0 155 -110 155q-113 0 -113 -174z" />
    <glyph glyph-name="uni006F" unicode="o" horiz-adv-x="568" 
d="M283 513q107 0 173 -77t66 -186q0 -108 -66.5 -184.5t-172.5 -76.5q-108 0 -172.5 75t-64.5 186t64 187t173 76zM283 479q-43 0 -71 -21.5t-39.5 -60.5t-15 -71t-3.5 -76q0 -34 1.5 -59.5t9 -59.5t20.5 -56t38 -37.5t60 -15.5q131 0 131 228q0 229 -131 229z" />
    <glyph glyph-name="uni0070" unicode="p" horiz-adv-x="616" 
d="M341 24q33 0 56.5 16.5t35.5 38.5t19 57t8.5 58.5t1.5 56.5q1 115 -28 171q-29 53 -91 53q-36 0 -62.5 -21.5t-39 -56t-18 -67.5t-5.5 -67v-58q0 -38 4.5 -66.5t16.5 -56.5t38 -43t64 -15zM218 58v-271h111v-37h-292v37h78v677h-78v37q73 0 105 3q31 1 45 11l14 -9v-146
q9 69 52.5 111t111.5 42q65 0 113.5 -40.5t70 -98t21.5 -121.5q0 -105 -59 -184.5t-161 -79.5q-87 0 -132 69z" />
    <glyph glyph-name="uni0071" unicode="q" horiz-adv-x="572" 
d="M500 -213h77v-37h-291v37h111v73q0 92 11 235q-38 -106 -145 -106q-92 0 -154 74q-64 74 -62 187q2 103 64.5 183t162.5 80q110 0 150 -100l57 108h19v-734zM155 252q0 -222 121 -222q36 0 61.5 17.5t37.5 48t17 60t5 64.5v50q0 39 -3 68t-13.5 65t-35.5 56t-63 20
q-124 0 -127 -227z" />
    <glyph glyph-name="uni0072" unicode="r" horiz-adv-x="468" 
d="M218 225v-192h118v-33h-299v33h78v436h-78v32q85 0 115 2q23 2 35 12l14 -9v-147q9 65 44.5 109.5t96.5 44.5q50 0 81 -28.5t31 -78.5q0 -34 -16 -56t-49 -22q-31 0 -50 18t-19 49q0 55 64 66q-16 18 -50 18q-36 0 -61.5 -28.5t-36 -73.5t-14.5 -81t-4 -71z" />
    <glyph glyph-name="uni0073" unicode="s" horiz-adv-x="446" 
d="M104 28l-44 -39h-14v182h34q0 -73 41 -111t115 -38q45 0 72 21.5t27 65.5q0 60 -69 81q-3 1 -12.5 3.5t-21.5 6t-24 6.5q-77 18 -117.5 53t-40.5 106q0 69 42.5 108.5t111.5 39.5q71 0 115 -37l39 37h14v-178h-33q0 67 -32.5 105t-97.5 38q-42 0 -69 -20.5t-27 -61.5
q0 -45 45 -69q10 -5 24 -9q16 -5 61 -18q78 -20 117.5 -55.5t39.5 -108.5q0 -72 -43 -109.5t-116 -37.5q-72 0 -137 39z" />
    <glyph glyph-name="uni0074" unicode="t" horiz-adv-x="382" 
d="M220 -11q-62 0 -96 34t-34 96v350h-90v22q74 0 119 56t47 133h24v-179h157v-32h-154v-356q0 -88 60 -88q39 0 55 36q16 33 16 115h30q0 -43 -4.5 -72.5t-17.5 -57.5t-41 -42.5t-71 -14.5z" />
    <glyph glyph-name="uni0075" unicode="u" horiz-adv-x="612" 
d="M443 -14l-14 9v136q-22 -142 -160 -142q-90 0 -127.5 52t-37.5 147v281h-87v32q106 0 136 3q29 2 40 11l13 -9v-311q0 -32 3.5 -56t13 -48.5t31.5 -37.5t54 -13q104 0 104 174v255h-122v32q132 0 166 3q34 1 45 11l14 -9v-473h78v-33q-92 0 -150 -14z" />
    <glyph glyph-name="uni0076" unicode="v" horiz-adv-x="480" 
d="M434 469l-173 -479h-25l-182 479h-61v32h252v-32h-91l123 -328l114 328h-76v32h173v-32h-54z" />
    <glyph glyph-name="uni0077" unicode="w" horiz-adv-x="729" 
d="M484 -10l-119 368l-121 -368h-25l-165 479h-61v32h229v-32h-69l108 -315l85 264l-16 51h-50v32h222v-32h-77l100 -313l99 313h-64v32h176v-32h-72l-155 -479h-25z" />
    <glyph glyph-name="uni0078" unicode="x" horiz-adv-x="530" 
d="M197 33v-33h-201v33h73l150 211l-154 225h-59v32h235v-32h-69l113 -163l113 163h-70v32h185v-32h-68l-137 -195l167 -241h54v-33h-242v33h78l-121 175l-123 -175h76z" />
    <glyph glyph-name="uni0079" unicode="y" horiz-adv-x="533" 
d="M122 -260q-47 0 -75 30.5t-28 78.5q0 33 17.5 53.5t49.5 20.5q29 0 44.5 -16.5t15.5 -45.5q0 -59 -72 -63q16 -23 48 -23q36 0 61 37q27 39 67 154l11 31l-194 472h-74v32h265v-32h-89l137 -338l125 338h-77v32h186v-32h-65l-176 -484q-57 -159 -91 -201q-35 -44 -86 -44
z" />
    <glyph glyph-name="uni007A" unicode="z" horiz-adv-x="471" 
d="M439 181v-181h-407v23l293 446h-136q-60 0 -84 -30.5t-24 -92.5v-25h-33v180h387v-22l-293 -446h156q61 0 84.5 30.5t23.5 93.5v24h33z" />
    <glyph glyph-name="uni00C0" unicode="&#xc0;" horiz-adv-x="600" 
d="M261 535l-95 -281h190zM207 33v-33h-219v33h64l229 667h36l227 -667h69v-33h-301v33h119l-64 188h-212l-64 -188h116zM293 843l75 -102h-30l-183 94q-20 11 -17 23q2 12 28 12h76q17 0 29 -5q10 -6 22 -22z" />
    <glyph glyph-name="uni00C1" unicode="&#xc1;" horiz-adv-x="600" 
d="M261 535l-95 -281h190zM207 33v-33h-219v33h64l229 667h36l227 -667h69v-33h-301v33h119l-64 188h-212l-64 -188h116zM466 835l-182 -95h-30l75 103q21 27 59 27h75q26 0 27 -10q0 -12 -24 -25z" />
    <glyph glyph-name="uni00C2" unicode="&#xc2;" horiz-adv-x="600" 
d="M261 535l-95 -281h190zM207 33v-33h-219v33h64l229 667h36l227 -667h69v-33h-301v33h119l-64 188h-212l-64 -188h116zM420 737l-120 75l-119 -75h-32l138 172h27l133 -172h-27z" />
    <glyph glyph-name="uni00C3" unicode="&#xc3;" horiz-adv-x="600" 
d="M261 535l-95 -281h190zM207 33v-33h-219v33h64l229 667h36l227 -667h69v-33h-301v33h119l-64 188h-212l-64 -188h116zM437 885h25q0 -127 -93 -127q-22 0 -43 9q-19 7 -54 34q-27 21 -39 26q-13 6 -27 6q-47 0 -47 -69h-25q0 127 90 127q25 0 49 -8q23 -9 55 -34
q29 -22 38 -25q14 -6 27 -6q44 0 44 67z" />
    <glyph glyph-name="uni00C4" unicode="&#xc4;" horiz-adv-x="600" 
d="M261 535l-95 -281h190zM207 33v-33h-219v33h64l229 667h36l227 -667h69v-33h-301v33h119l-64 188h-212l-64 -188h116zM269 823q0 -28 -18 -47.5t-46 -19.5q-29 0 -46.5 19t-17.5 48q0 30 17 49t47 19q29 0 46.5 -19.5t17.5 -48.5zM461 823q0 -28 -18 -47.5t-46 -19.5
t-45.5 19.5t-17.5 47.5q0 30 17 49t46 19t46.5 -19.5t17.5 -48.5z" />
    <glyph glyph-name="uni00C5" unicode="&#xc5;" horiz-adv-x="600" 
d="M261 535l-95 -281h190zM207 33v-33h-219v33h64l229 667h36l227 -667h69v-33h-301v33h119l-64 188h-212l-64 -188h116zM299 909q38 0 62 -23.5t24 -61.5q0 -37 -24.5 -60.5t-61.5 -23.5t-61.5 23.5t-24.5 60.5q0 39 23.5 62t62.5 23zM300 868q-20 0 -31 -12t-11 -32
q0 -45 42 -45q20 0 32 13q11 14 11 32q0 17 -11 31q-12 13 -32 13z" />
    <glyph glyph-name="uni00C6" unicode="&#xc6;" horiz-adv-x="832" 
d="M394 594l-203 -340h203v340zM175 33v-33h-220v33h66l370 624h-112v33h489v-220h-32v42q0 83 -35.5 114t-120.5 31h-78v-272h123v76h38v-195h-38v86h-123v-319h116q80 0 108 36t28 119v36h32v-224h-510v33h118v188h-222l-113 -188h116z" />
    <glyph glyph-name="uni00C7" unicode="&#xc7;" horiz-adv-x="591" 
d="M431 -132q0 -74 -104 -74q-82 0 -110 46l17 15q9 -12 27 -20q17 -6 38 -6q55 0 55 44q0 49 -84 49l-4 11l37 58q-81 8 -143 64.5t-91.5 133t-29.5 157.5q0 87 34 167t103.5 134t157.5 54q86 0 134 -37l40 36h18v-230h-33q0 87 -35.5 142t-117.5 55q-183 0 -183 -321
q0 -323 183 -323q84 0 121 56t37 145h33v-234h-18l-40 38q-59 -39 -135 -39l-26 -39q44 0 81.5 -20.5t37.5 -61.5z" />
    <glyph glyph-name="uni00C8" unicode="&#xc8;" 
d="M537 224v-224h-495v33h82v624h-82v33h477v-220h-33v42q0 83 -35 114t-120 31h-100v-290h145v77h37v-195h-37v86h-145v-302h138q79 0 107 36t28 119v36h33zM276 843l75 -102h-30l-183 94q-20 11 -17 23q1 12 28 12h76q17 0 29 -5q10 -6 22 -22z" />
    <glyph glyph-name="uni00C9" unicode="&#xc9;" 
d="M537 224v-224h-495v33h82v624h-82v33h477v-220h-33v42q0 83 -35 114t-120 31h-100v-290h145v77h37v-195h-37v86h-145v-302h138q79 0 107 36t28 119v36h33zM450 835l-182 -95h-30l75 103q21 27 59 27h75q26 0 27 -10q0 -12 -24 -25z" />
    <glyph glyph-name="uni00CA" unicode="&#xca;" 
d="M537 224v-224h-495v33h82v624h-82v33h477v-220h-33v42q0 83 -35 114t-120 31h-100v-290h145v77h37v-195h-37v86h-145v-302h138q79 0 107 36t28 119v36h33zM414 737l-120 75l-119 -75h-32l138 172h27l133 -172h-27z" />
    <glyph glyph-name="uni00CB" unicode="&#xcb;" 
d="M537 224v-224h-495v33h82v624h-82v33h477v-220h-33v42q0 83 -35 114t-120 31h-100v-290h145v77h37v-195h-37v86h-145v-302h138q79 0 107 36t28 119v36h33zM264 823q0 -28 -18 -47.5t-46 -19.5q-29 0 -46.5 19t-17.5 48q0 30 17 49t47 19q29 0 46.5 -19.5t17.5 -48.5z
M456 823q0 -28 -18 -47.5t-46 -19.5t-45.5 19.5t-17.5 47.5q0 30 17 49t46 19t46.5 -19.5t17.5 -48.5z" />
    <glyph glyph-name="uni00CC" unicode="&#xcc;" horiz-adv-x="364" 
d="M236 33h86v-33h-280v33h86v624h-86v33h280v-33h-86v-624zM138 843l75 -102h-30l-183 94q-19 10 -18 23q3 12 29 12h76q17 0 29 -5q10 -6 22 -22z" />
    <glyph glyph-name="uni00CD" unicode="&#xcd;" horiz-adv-x="364" 
d="M236 33h86v-33h-280v33h86v624h-86v33h280v-33h-86v-624zM354 835l-182 -95h-30l75 103q21 27 59 27h75q26 0 27 -10q0 -12 -24 -25z" />
    <glyph glyph-name="uni00CE" unicode="&#xce;" horiz-adv-x="364" 
d="M236 33h86v-33h-280v33h86v624h-86v33h280v-33h-86v-624zM307 737l-120 75l-119 -75h-32l138 172h27l133 -172h-27z" />
    <glyph glyph-name="uni00CF" unicode="&#xcf;" horiz-adv-x="364" 
d="M236 33h86v-33h-280v33h86v624h-86v33h280v-33h-86v-624zM150 823q0 -28 -18 -47.5t-46 -19.5q-29 0 -46.5 19t-17.5 48q0 30 17 49t47 19q29 0 46.5 -19.5t17.5 -48.5zM342 823q0 -28 -18 -47.5t-46 -19.5t-45.5 19.5t-17.5 47.5q0 30 17 49t46 19t46.5 -19.5
t17.5 -48.5z" />
    <glyph glyph-name="uni00D1" unicode="&#xd1;" horiz-adv-x="706" 
d="M166 583v-550h88v-33h-212v33h82v624h-82v33h175l331 -509v476h-87v33h211v-33h-81v-666h-38zM507 886h25q0 -127 -93 -127q-22 0 -43 9q-19 7 -54 34q-27 21 -39 26q-13 6 -27 6q-47 0 -47 -69h-25q0 127 90 127q25 0 49 -8q23 -9 55 -34q29 -22 38 -25q14 -6 27 -6
q44 0 44 67z" />
    <glyph glyph-name="uni00D2" unicode="&#xd2;" horiz-adv-x="656" 
d="M328 701q93 0 160.5 -53.5t98 -132.5t30.5 -170t-30.5 -170t-98 -132.5t-160.5 -53.5q-92 0 -160 54t-98.5 133t-30.5 169t30.5 169t98.5 133t160 54zM328 668q-39 0 -69 -15t-48 -43t-29.5 -58t-16.5 -71t-6.5 -70t-1.5 -66t1.5 -66t6.5 -70t16.5 -71t29.5 -58t48 -43
t69 -15t69.5 15t48 43t29 57.5t16.5 71t6.5 70t1.5 66.5t-1.5 66.5t-6.5 70t-16.5 71t-29 57.5t-48 43t-69.5 15zM281 843l75 -102h-30l-183 94q-20 11 -17 23q2 12 28 12h76q17 0 29 -5q10 -6 22 -22z" />
    <glyph glyph-name="uni00D3" unicode="&#xd3;" horiz-adv-x="656" 
d="M328 701q93 0 160.5 -53.5t98 -132.5t30.5 -170t-30.5 -170t-98 -132.5t-160.5 -53.5q-92 0 -160 54t-98.5 133t-30.5 169t30.5 169t98.5 133t160 54zM328 668q-39 0 -69 -15t-48 -43t-29.5 -58t-16.5 -71t-6.5 -70t-1.5 -66t1.5 -66t6.5 -70t16.5 -71t29.5 -58t48 -43
t69 -15t69.5 15t48 43t29 57.5t16.5 71t6.5 70t1.5 66.5t-1.5 66.5t-6.5 70t-16.5 71t-29 57.5t-48 43t-69.5 15zM497 835l-182 -95h-30l75 103q21 27 59 27h75q26 0 27 -10q0 -12 -24 -25z" />
    <glyph glyph-name="uni00D4" unicode="&#xd4;" horiz-adv-x="656" 
d="M449 735l-120 75l-119 -75h-32l138 172h27l133 -172h-27zM328 701q93 0 160.5 -53.5t98 -132.5t30.5 -170t-30.5 -170t-98 -132.5t-160.5 -53.5q-92 0 -160 54t-98.5 133t-30.5 169t30.5 169t98.5 133t160 54zM328 668q-39 0 -69 -15t-48 -43t-29.5 -58t-16.5 -71
t-6.5 -70t-1.5 -66t1.5 -66t6.5 -70t16.5 -71t29.5 -58t48 -43t69 -15t69.5 15t48 43t29 57.5t16.5 71t6.5 70t1.5 66.5t-1.5 66.5t-6.5 70t-16.5 71t-29 57.5t-48 43t-69.5 15z" />
    <glyph glyph-name="uni00D5" unicode="&#xd5;" horiz-adv-x="656" 
d="M328 701q93 0 160.5 -53.5t98 -132.5t30.5 -170t-30.5 -170t-98 -132.5t-160.5 -53.5q-92 0 -160 54t-98.5 133t-30.5 169t30.5 169t98.5 133t160 54zM328 668q-39 0 -69 -15t-48 -43t-29.5 -58t-16.5 -71t-6.5 -70t-1.5 -66t1.5 -66t6.5 -70t16.5 -71t29.5 -58t48 -43
t69 -15t69.5 15t48 43t29 57.5t16.5 71t6.5 70t1.5 66.5t-1.5 66.5t-6.5 70t-16.5 71t-29 57.5t-48 43t-69.5 15zM460 885h25q0 -127 -93 -127q-22 0 -43 9q-19 7 -54 34q-27 21 -39 26q-14 6 -27 6q-47 0 -47 -69h-25q0 127 90 127q25 0 49 -8q23 -9 55 -34q29 -22 38 -25
q13 -6 27 -6q44 0 44 67z" />
    <glyph glyph-name="uni00D6" unicode="&#xd6;" horiz-adv-x="656" 
d="M328 701q93 0 160.5 -53.5t98 -132.5t30.5 -170t-30.5 -170t-98 -132.5t-160.5 -53.5q-92 0 -160 54t-98.5 133t-30.5 169t30.5 169t98.5 133t160 54zM328 668q-39 0 -69 -15t-48 -43t-29.5 -58t-16.5 -71t-6.5 -70t-1.5 -66t1.5 -66t6.5 -70t16.5 -71t29.5 -58t48 -43
t69 -15t69.5 15t48 43t29 57.5t16.5 71t6.5 70t1.5 66.5t-1.5 66.5t-6.5 70t-16.5 71t-29 57.5t-48 43t-69.5 15zM292 823q0 -28 -18 -47.5t-46 -19.5q-29 0 -46.5 19t-17.5 48q0 30 17 49t47 19q29 0 46.5 -19.5t17.5 -48.5zM484 823q0 -28 -18 -47.5t-46 -19.5t-45.5 19.5
t-17.5 47.5q0 30 17 49t46 19t46.5 -19.5t17.5 -48.5z" />
    <glyph glyph-name="uni00D9" unicode="&#xd9;" horiz-adv-x="653" 
d="M628 657h-82v-425q0 -120 -45 -181.5t-160 -61.5q-123 0 -179 60t-56 184v424h-82v33h283v-33h-93v-432q0 -43 5.5 -75.5t20 -63t44.5 -47t74 -16.5q45 0 75.5 16.5t45 47.5t20 64t5.5 78v428h-93v33h217v-33zM317 843l75 -102h-30l-183 94q-20 11 -17 23q2 12 28 12h76
q17 0 29 -5q10 -6 22 -22z" />
    <glyph glyph-name="uni00DA" unicode="&#xda;" horiz-adv-x="653" 
d="M628 657h-82v-425q0 -120 -45 -181.5t-160 -61.5q-123 0 -179 60t-56 184v424h-82v33h283v-33h-93v-432q0 -43 5.5 -75.5t20 -63t44.5 -47t74 -16.5q45 0 75.5 16.5t45 47.5t20 64t5.5 78v428h-93v33h217v-33zM535 835l-182 -95h-30l75 103q21 27 59 27h75q26 0 27 -10
q0 -12 -24 -25z" />
    <glyph glyph-name="uni00DB" unicode="&#xdb;" horiz-adv-x="653" 
d="M628 657h-82v-425q0 -120 -45 -181.5t-160 -61.5q-123 0 -179 60t-56 184v424h-82v33h283v-33h-93v-432q0 -43 5.5 -75.5t20 -63t44.5 -47t74 -16.5q45 0 75.5 16.5t45 47.5t20 64t5.5 78v428h-93v33h217v-33zM470 737l-120 75l-119 -75h-32l138 172h27l133 -172h-27z
" />
    <glyph glyph-name="uni00DC" unicode="&#xdc;" horiz-adv-x="653" 
d="M628 657h-82v-425q0 -120 -45 -181.5t-160 -61.5q-123 0 -179 60t-56 184v424h-82v33h283v-33h-93v-432q0 -43 5.5 -75.5t20 -63t44.5 -47t74 -16.5q45 0 75.5 16.5t45 47.5t20 64t5.5 78v428h-93v33h217v-33zM319 823q0 -28 -18 -47.5t-46 -19.5q-29 0 -46.5 19
t-17.5 48q0 30 17 49t47 19q29 0 46.5 -19.5t17.5 -48.5zM511 823q0 -28 -18 -47.5t-46 -19.5t-45.5 19.5t-17.5 47.5q0 30 17 49t46 19t46.5 -19.5t17.5 -48.5z" />
    <glyph glyph-name="uni00DD" unicode="&#xdd;" horiz-adv-x="603" 
d="M452 33v-33h-283v33h87v281l-181 343h-70v33h286v-33h-105l155 -293l146 293h-87v33h198v-33h-68l-166 -334v-290h88zM503 835l-182 -95h-30l75 103q21 27 59 27h75q26 0 27 -10q0 -12 -24 -25z" />
    <glyph glyph-name="uni00DF" unicode="&#xdf;" horiz-adv-x="580" 
d="M554 159q0 -81 -57.5 -125.5t-140.5 -44.5q-56 0 -77 11v34q20 -11 56 -11q106 0 106 133q0 38 -14 69q-16 30 -62 67q-22 18 -33 30t-20.5 32t-9.5 43q0 21 7 36q6 18 28 45q28 38 40 70t12 77q0 107 -77 107q-20 0 -35 -8.5t-22.5 -19t-13 -31t-6.5 -32.5t-3 -34
q-1 -15 -1 -89v-518h-198v33h95v434h-95v33h95v20q0 50 9.5 91.5t30.5 77.5t59 56t90 20q68 0 125.5 -37.5t57.5 -102.5q0 -45 -24 -78t-70 -71q-41 -33 -50 -47q-11 -17 -11 -32q0 -17 15 -34q12 -14 65 -44q32 -18 50 -30t39 -31.5t30.5 -44t9.5 -54.5z" />
    <glyph glyph-name="uni00E0" unicode="&#xe0;" horiz-adv-x="554" 
d="M441 -11q-99 0 -104 117q-16 -54 -59.5 -85.5t-100.5 -31.5q-61 0 -98.5 28.5t-37.5 86.5q0 30 16 55.5t35.5 40.5t55 29.5t55 20.5t54.5 15l72 19v70q0 120 -105 120q-56 0 -95 -35q53 -16 53 -66q0 -30 -17.5 -47t-47.5 -17q-29 0 -46.5 17.5t-17.5 46.5q0 45 34 78.5
t78.5 47.5t87.5 14q179 0 179 -149v-279q0 -25 9 -38q7 -13 25 -13q50 0 50 118h30q0 -34 -3 -58.5t-13 -50.5t-32.5 -40t-56.5 -14zM148 120q0 -35 18 -55t52 -20q42 0 68.5 28.5t34.5 63t8 76.5v41l-61 -18q-55 -15 -87.5 -41.5t-32.5 -74.5zM228 721l84 -131h-30
l-182 123q-20 14 -17 24q3 11 28 11h66q19 0 31 -6q11 -6 20 -21z" />
    <glyph glyph-name="uni00E1" unicode="&#xe1;" horiz-adv-x="554" 
d="M441 -11q-99 0 -104 117q-16 -54 -59.5 -85.5t-100.5 -31.5q-61 0 -98.5 28.5t-37.5 86.5q0 30 16 55.5t35.5 40.5t55 29.5t55 20.5t54.5 15l72 19v70q0 120 -105 120q-56 0 -95 -35q53 -16 53 -66q0 -30 -17.5 -47t-47.5 -17q-29 0 -46.5 17.5t-17.5 46.5q0 45 34 78.5
t78.5 47.5t87.5 14q179 0 179 -149v-279q0 -25 9 -38q7 -13 25 -13q50 0 50 118h30q0 -34 -3 -58.5t-13 -50.5t-32.5 -40t-56.5 -14zM148 120q0 -35 18 -55t52 -20q42 0 68.5 28.5t34.5 63t8 76.5v41l-61 -18q-55 -15 -87.5 -41.5t-32.5 -74.5zM454 713l-200 -123h-30
l102 131q21 27 59 27h66q26 0 27 -10q0 -12 -24 -25z" />
    <glyph glyph-name="uni00E2" unicode="&#xe2;" horiz-adv-x="554" 
d="M441 -11q-99 0 -104 117q-16 -54 -59.5 -85.5t-100.5 -31.5q-61 0 -98.5 28.5t-37.5 86.5q0 30 16 55.5t35.5 40.5t55 29.5t55 20.5t54.5 15l72 19v70q0 120 -105 120q-56 0 -95 -35q53 -16 53 -66q0 -30 -17.5 -47t-47.5 -17q-29 0 -46.5 17.5t-17.5 46.5q0 45 34 78.5
t78.5 47.5t87.5 14q179 0 179 -149v-279q0 -25 9 -38q7 -13 25 -13q50 0 50 118h30q0 -34 -3 -58.5t-13 -50.5t-32.5 -40t-56.5 -14zM148 120q0 -35 18 -55t52 -20q42 0 68.5 28.5t34.5 63t8 76.5v41l-61 -18q-55 -15 -87.5 -41.5t-32.5 -74.5zM386 581l-120 75l-119 -75
h-32l138 172h27l133 -172h-27z" />
    <glyph glyph-name="uni00E3" unicode="&#xe3;" horiz-adv-x="554" 
d="M441 -11q-99 0 -104 117q-16 -54 -59.5 -85.5t-100.5 -31.5q-61 0 -98.5 28.5t-37.5 86.5q0 30 16 55.5t35.5 40.5t55 29.5t55 20.5t54.5 15l72 19v70q0 120 -105 120q-56 0 -95 -35q53 -16 53 -66q0 -30 -17.5 -47t-47.5 -17q-29 0 -46.5 17.5t-17.5 46.5q0 45 34 78.5
t78.5 47.5t87.5 14q179 0 179 -149v-279q0 -25 9 -38q7 -13 25 -13q50 0 50 118h30q0 -34 -3 -58.5t-13 -50.5t-32.5 -40t-56.5 -14zM148 120q0 -35 18 -55t52 -20q42 0 68.5 28.5t34.5 63t8 76.5v41l-61 -18q-55 -15 -87.5 -41.5t-32.5 -74.5zM403 760h25q0 -127 -93 -127
q-22 0 -43 9q-19 7 -54 34q-27 21 -39 26q-13 6 -27 6q-47 0 -47 -69h-25q0 127 90 127q25 0 49 -8q23 -9 55 -34q29 -22 38 -25q14 -6 27 -6q44 0 44 67z" />
    <glyph glyph-name="uni00E4" unicode="&#xe4;" horiz-adv-x="554" 
d="M441 -11q-99 0 -104 117q-16 -54 -59.5 -85.5t-100.5 -31.5q-61 0 -98.5 28.5t-37.5 86.5q0 30 16 55.5t35.5 40.5t55 29.5t55 20.5t54.5 15l72 19v70q0 120 -105 120q-56 0 -95 -35q53 -16 53 -66q0 -30 -17.5 -47t-47.5 -17q-29 0 -46.5 17.5t-17.5 46.5q0 45 34 78.5
t78.5 47.5t87.5 14q179 0 179 -149v-279q0 -25 9 -38q7 -13 25 -13q50 0 50 118h30q0 -34 -3 -58.5t-13 -50.5t-32.5 -40t-56.5 -14zM148 120q0 -35 18 -55t52 -20q42 0 68.5 28.5t34.5 63t8 76.5v41l-61 -18q-55 -15 -87.5 -41.5t-32.5 -74.5zM237 698q0 -28 -18 -47.5
t-46 -19.5q-29 0 -46.5 19t-17.5 48q0 30 17 49t47 19q29 0 46.5 -19.5t17.5 -48.5zM429 698q0 -28 -18 -47.5t-46 -19.5t-45.5 19.5t-17.5 47.5q0 30 17 49t46 19t46.5 -19.5t17.5 -48.5z" />
    <glyph glyph-name="uni00E5" unicode="&#xe5;" horiz-adv-x="554" 
d="M441 -11q-99 0 -104 117q-16 -54 -59.5 -85.5t-100.5 -31.5q-61 0 -98.5 28.5t-37.5 86.5q0 30 16 55.5t35.5 40.5t55 29.5t55 20.5t54.5 15l72 19v70q0 120 -105 120q-56 0 -95 -35q53 -16 53 -66q0 -30 -17.5 -47t-47.5 -17q-29 0 -46.5 17.5t-17.5 46.5q0 45 34 78.5
t78.5 47.5t87.5 14q179 0 179 -149v-279q0 -25 9 -38q7 -13 25 -13q50 0 50 118h30q0 -34 -3 -58.5t-13 -50.5t-32.5 -40t-56.5 -14zM148 120q0 -35 18 -55t52 -20q42 0 68.5 28.5t34.5 63t8 76.5v41l-61 -18q-55 -15 -87.5 -41.5t-32.5 -74.5zM261 766q38 0 62 -23.5
t24 -61.5q0 -37 -24.5 -60.5t-61.5 -23.5t-61.5 23.5t-24.5 60.5q0 39 23.5 62t62.5 23zM262 725q-20 0 -31 -12t-11 -32q0 -45 42 -45q20 0 32 13q11 14 11 32q0 17 -11 31q-12 13 -32 13z" />
    <glyph glyph-name="uni00E6" unicode="&#xe6;" horiz-adv-x="811" 
d="M732 153l31 -7q-16 -72 -64 -114.5t-121 -42.5q-134 0 -196 112q-45 -112 -189 -112q-70 0 -111 32t-41 100q0 46 22 79.5t59 50t75.5 24t82.5 7.5h67v55q0 137 -115 137q-66 0 -101 -35q27 -8 39 -23q12 -16 12 -43q0 -30 -17.5 -47t-47.5 -17t-47 17t-17 47
q0 46 35.5 79t80.5 47t89 14q115 0 155 -78q59 78 155 78q103 0 152.5 -70.5t49.5 -176.5q0 -2 -0.5 -7t-1.5 -7h-314q0 -36 1.5 -61t9 -59.5t20.5 -55.5t39 -36t62 -15q60 0 94 33t52 95zM566 479q-25 0 -43.5 -8.5t-30 -25.5t-19.5 -34t-11.5 -43t-5 -42.5t-2.5 -41.5h211
q1 103 -23 150q-24 45 -76 45zM148 138q0 -93 90 -93q45 0 77.5 29.5t45.5 75.5q-7 17 -10 46q-4 23 -4 54l-60 -1q-139 -4 -139 -111z" />
    <glyph glyph-name="uni00E7" unicode="&#xe7;" horiz-adv-x="490" 
d="M378 -132q0 -74 -104 -74q-82 0 -110 46l17 15q9 -12 27 -20q16 -6 38 -6q55 0 55 44q0 49 -84 49l-4 11l37 57q-100 9 -152 81t-52 177q0 115 62 190t175 75q72 0 119.5 -38.5t47.5 -109.5q0 -30 -17 -49t-46 -19q-31 0 -49 17t-18 47t19.5 47.5t50.5 21.5
q-24 50 -102 50q-30 0 -53 -10t-37 -29.5t-23.5 -41t-13.5 -50t-5.5 -51t-1.5 -50.5q0 -38 5 -71.5t17 -70.5t39.5 -59t66.5 -22q60 0 93.5 33t49.5 95l32 -7q-16 -71 -59 -112.5t-113 -44.5l-26 -39q44 0 81.5 -20.5t37.5 -61.5z" />
    <glyph glyph-name="uni00E8" unicode="&#xe8;" horiz-adv-x="519" 
d="M282 -11q-111 0 -173.5 75.5t-62.5 188.5q0 108 60.5 184t165.5 76q104 0 155 -66t51 -173q0 -2 -0.5 -7t-1.5 -7h-322v-11q0 -44 4 -77t17 -70t42 -57t73 -20q61 0 96.5 33t54.5 95l31 -7q-16 -71 -66.5 -114t-123.5 -43zM270 479q-35 0 -58.5 -17t-35 -48.5t-15.5 -58
t-6 -62.5h218q2 98 -24 142t-79 44zM217 721l84 -131h-30l-182 123q-20 14 -17 24q3 11 28 11h66q19 0 31 -6q11 -6 20 -21z" />
    <glyph glyph-name="uni00E9" unicode="&#xe9;" horiz-adv-x="519" 
d="M282 -11q-111 0 -173.5 75.5t-62.5 188.5q0 108 60.5 184t165.5 76q104 0 155 -66t51 -173q0 -2 -0.5 -7t-1.5 -7h-322v-11q0 -44 4 -77t17 -70t42 -57t73 -20q61 0 96.5 33t54.5 95l31 -7q-16 -71 -66.5 -114t-123.5 -43zM270 479q-35 0 -58.5 -17t-35 -48.5t-15.5 -58
t-6 -62.5h218q2 98 -24 142t-79 44zM459 713l-200 -123h-30l102 131q21 27 59 27h66q26 0 27 -10q0 -12 -24 -25z" />
    <glyph glyph-name="uni00EA" unicode="&#xea;" horiz-adv-x="519" 
d="M282 -11q-111 0 -173.5 75.5t-62.5 188.5q0 108 60.5 184t165.5 76q104 0 155 -66t51 -173q0 -2 -0.5 -7t-1.5 -7h-322v-11q0 -44 4 -77t17 -70t42 -57t73 -20q61 0 96.5 33t54.5 95l31 -7q-16 -71 -66.5 -114t-123.5 -43zM270 479q-35 0 -58.5 -17t-35 -48.5t-15.5 -58
t-6 -62.5h218q2 98 -24 142t-79 44zM392 581l-120 75l-119 -75h-32l138 172h27l133 -172h-27z" />
    <glyph glyph-name="uni00EB" unicode="&#xeb;" horiz-adv-x="519" 
d="M282 -11q-111 0 -173.5 75.5t-62.5 188.5q0 108 60.5 184t165.5 76q104 0 155 -66t51 -173q0 -2 -0.5 -7t-1.5 -7h-322v-11q0 -44 4 -77t17 -70t42 -57t73 -20q61 0 96.5 33t54.5 95l31 -7q-16 -71 -66.5 -114t-123.5 -43zM270 479q-35 0 -58.5 -17t-35 -48.5t-15.5 -58
t-6 -62.5h218q2 98 -24 142t-79 44zM237 670q0 -28 -18 -47.5t-46 -19.5q-29 0 -46.5 19t-17.5 48q0 30 17 49t47 19q29 0 46.5 -19.5t17.5 -48.5zM429 670q0 -28 -18 -47.5t-46 -19.5t-45.5 19.5t-17.5 47.5q0 30 17 49t46 19t46.5 -19.5t17.5 -48.5z" />
    <glyph glyph-name="uni00EC" unicode="&#xec;" horiz-adv-x="327" 
d="M218 33h77v-33h-258v33h78v436h-78v32q101 0 128 3q26 1 39 11l14 -9v-473zM144 721l84 -131h-30l-182 123q-20 14 -17 24q3 11 28 11h66q19 0 31 -6q11 -6 20 -21z" />
    <glyph glyph-name="uni00ED" unicode="&#xed;" horiz-adv-x="327" 
d="M218 33h77v-33h-258v33h78v436h-78v32q101 0 128 3q26 1 39 11l14 -9v-473zM325 713l-200 -123h-30l102 131q21 27 59 27h66q26 0 27 -10q0 -12 -24 -25z" />
    <glyph glyph-name="uni00EE" unicode="&#xee;" horiz-adv-x="327" 
d="M218 33h77v-33h-258v33h78v436h-78v32q101 0 128 3q26 1 39 11l14 -9v-473zM284 581l-120 75l-119 -75h-32l138 172h27l133 -172h-27z" />
    <glyph glyph-name="uni00EF" unicode="&#xef;" horiz-adv-x="327" 
d="M218 33h77v-33h-258v33h78v436h-78v32q101 0 128 3q26 1 39 11l14 -9v-473zM119 698q0 -28 -18 -47.5t-46 -19.5q-29 0 -46.5 19t-17.5 48q0 30 17 49t47 19q29 0 46.5 -19.5t17.5 -48.5zM311 698q0 -28 -18 -47.5t-46 -19.5t-45.5 19.5t-17.5 47.5q0 30 17 49t46 19
t46.5 -19.5t17.5 -48.5z" />
    <glyph glyph-name="uni00F1" unicode="&#xf1;" horiz-adv-x="650" 
d="M218 287v-254h75v-33h-256v33h78v436h-78v32q89 0 115 3q24 1 35 11l14 -9v-143q9 70 54 110t115 40q174 0 174 -200v-280h77v-33h-255v33h75v273q0 155 -110 155q-113 0 -113 -174zM472 760h25q0 -127 -93 -127q-22 0 -43 9q-19 7 -54 34q-27 21 -39 26q-14 6 -27 6
q-47 0 -47 -69h-25q0 127 90 127q25 0 49 -8q23 -9 55 -34q29 -22 38 -25q13 -6 27 -6q44 0 44 67z" />
    <glyph glyph-name="uni00F2" unicode="&#xf2;" horiz-adv-x="568" 
d="M283 513q107 0 173 -77t66 -186q0 -108 -66.5 -184.5t-172.5 -76.5q-108 0 -172.5 75t-64.5 186t64 187t173 76zM283 479q-43 0 -71 -21.5t-39.5 -60.5t-15 -71t-3.5 -76q0 -34 1.5 -59.5t9 -59.5t20.5 -56t38 -37.5t60 -15.5q131 0 131 228q0 229 -131 229zM217 721
l84 -131h-30l-182 123q-20 14 -17 24q3 11 28 11h66q19 0 31 -6q11 -6 20 -21z" />
    <glyph glyph-name="uni00F3" unicode="&#xf3;" horiz-adv-x="568" 
d="M283 513q107 0 173 -77t66 -186q0 -108 -66.5 -184.5t-172.5 -76.5q-108 0 -172.5 75t-64.5 186t64 187t173 76zM283 479q-43 0 -71 -21.5t-39.5 -60.5t-15 -71t-3.5 -76q0 -34 1.5 -59.5t9 -59.5t20.5 -56t38 -37.5t60 -15.5q131 0 131 228q0 229 -131 229zM482 713
l-200 -123h-30l102 131q21 27 59 27h66q26 0 27 -10q0 -12 -24 -25z" />
    <glyph glyph-name="uni00F4" unicode="&#xf4;" horiz-adv-x="568" 
d="M283 513q107 0 173 -77t66 -186q0 -108 -66.5 -184.5t-172.5 -76.5q-108 0 -172.5 75t-64.5 186t64 187t173 76zM283 479q-43 0 -71 -21.5t-39.5 -60.5t-15 -71t-3.5 -76q0 -34 1.5 -59.5t9 -59.5t20.5 -56t38 -37.5t60 -15.5q131 0 131 228q0 229 -131 229zM406 581
l-120 75l-119 -75h-32l138 172h27l133 -172h-27z" />
    <glyph glyph-name="uni00F5" unicode="&#xf5;" horiz-adv-x="568" 
d="M283 513q107 0 173 -77t66 -186q0 -108 -66.5 -184.5t-172.5 -76.5q-108 0 -172.5 75t-64.5 186t64 187t173 76zM283 479q-43 0 -71 -21.5t-39.5 -60.5t-15 -71t-3.5 -76q0 -34 1.5 -59.5t9 -59.5t20.5 -56t38 -37.5t60 -15.5q131 0 131 228q0 229 -131 229zM421 760h25
q0 -127 -93 -127q-22 0 -43 9q-19 7 -54 34q-27 21 -39 26q-13 6 -27 6q-47 0 -47 -69h-25q0 127 90 127q25 0 49 -8q23 -9 55 -34q29 -22 38 -25q14 -6 27 -6q44 0 44 67z" />
    <glyph glyph-name="uni00F6" unicode="&#xf6;" horiz-adv-x="568" 
d="M283 513q107 0 173 -77t66 -186q0 -108 -66.5 -184.5t-172.5 -76.5q-108 0 -172.5 75t-64.5 186t64 187t173 76zM283 479q-43 0 -71 -21.5t-39.5 -60.5t-15 -71t-3.5 -76q0 -34 1.5 -59.5t9 -59.5t20.5 -56t38 -37.5t60 -15.5q131 0 131 228q0 229 -131 229zM245 698
q0 -28 -18 -47.5t-46 -19.5q-29 0 -46.5 19t-17.5 48q0 30 17 49t47 19q29 0 46.5 -19.5t17.5 -48.5zM437 698q0 -28 -18 -47.5t-46 -19.5t-45.5 19.5t-17.5 47.5q0 30 17 49t46 19t46.5 -19.5t17.5 -48.5z" />
    <glyph glyph-name="uni00F9" unicode="&#xf9;" horiz-adv-x="612" 
d="M443 -14l-14 9v136q-22 -142 -160 -142q-90 0 -127.5 52t-37.5 147v281h-87v32q106 0 136 3q29 2 40 11l13 -9v-311q0 -32 3.5 -56t13 -48.5t31.5 -37.5t54 -13q104 0 104 174v255h-122v32q132 0 166 3q34 1 45 11l14 -9v-473h78v-33q-92 0 -150 -14zM266 721l84 -131
h-30l-182 123q-20 14 -17 24q3 11 28 11h66q19 0 31 -6q11 -6 20 -21z" />
    <glyph glyph-name="uni00FA" unicode="&#xfa;" horiz-adv-x="612" 
d="M443 -14l-14 9v136q-22 -142 -160 -142q-90 0 -127.5 52t-37.5 147v281h-87v32q106 0 136 3q29 2 40 11l13 -9v-311q0 -32 3.5 -56t13 -48.5t31.5 -37.5t54 -13q104 0 104 174v255h-122v32q132 0 166 3q34 1 45 11l14 -9v-473h78v-33q-92 0 -150 -14zM512 713l-200 -123
h-30l102 131q21 27 59 27h66q26 0 27 -10q0 -12 -24 -25z" />
    <glyph glyph-name="uni00FB" unicode="&#xfb;" horiz-adv-x="612" 
d="M443 -14l-14 9v136q-22 -142 -160 -142q-90 0 -127.5 52t-37.5 147v281h-87v32q106 0 136 3q29 2 40 11l13 -9v-311q0 -32 3.5 -56t13 -48.5t31.5 -37.5t54 -13q104 0 104 174v255h-122v32q132 0 166 3q34 1 45 11l14 -9v-473h78v-33q-92 0 -150 -14zM425 581l-120 75
l-119 -75h-32l138 172h27l133 -172h-27z" />
    <glyph glyph-name="uni00FC" unicode="&#xfc;" horiz-adv-x="612" 
d="M443 -14l-14 9v136q-22 -142 -160 -142q-90 0 -127.5 52t-37.5 147v281h-87v32q106 0 136 3q29 2 40 11l13 -9v-311q0 -32 3.5 -56t13 -48.5t31.5 -37.5t54 -13q104 0 104 174v255h-122v32q132 0 166 3q34 1 45 11l14 -9v-473h78v-33q-92 0 -150 -14zM276 698
q0 -28 -18 -47.5t-46 -19.5q-29 0 -46.5 19t-17.5 48q0 30 17 49t47 19q29 0 46.5 -19.5t17.5 -48.5zM468 698q0 -28 -18 -47.5t-46 -19.5t-45.5 19.5t-17.5 47.5q0 30 17 49t46 19t46.5 -19.5t17.5 -48.5z" />
    <glyph glyph-name="uni00FD" unicode="&#xfd;" horiz-adv-x="533" 
d="M122 -260q-47 0 -75 30.5t-28 78.5q0 33 17.5 53.5t49.5 20.5q29 0 44.5 -16.5t15.5 -45.5q0 -59 -72 -63q16 -23 48 -23q36 0 61 37q27 39 67 154l11 31l-194 472h-74v32h265v-32h-89l137 -338l125 338h-77v32h186v-32h-65l-176 -484q-57 -159 -91 -201q-35 -44 -86 -44
zM478 723l-200 -123h-30l102 131q21 27 59 27h66q26 0 27 -10q0 -12 -24 -25z" />
    <glyph glyph-name="uni00FF" unicode="&#xff;" horiz-adv-x="533" 
d="M122 -260q-47 0 -75 30.5t-28 78.5q0 33 17.5 53.5t49.5 20.5q29 0 44.5 -16.5t15.5 -45.5q0 -59 -72 -63q16 -23 48 -23q36 0 61 37q27 39 67 154l11 31l-194 472h-74v32h265v-32h-89l137 -338l125 338h-77v32h186v-32h-65l-176 -484q-57 -159 -91 -201q-35 -44 -86 -44
zM264 698q0 -28 -18 -47.5t-46 -19.5q-29 0 -46.5 19t-17.5 48q0 30 17 49t47 19q29 0 46.5 -19.5t17.5 -48.5zM456 698q0 -28 -18 -47.5t-46 -19.5t-45.5 19.5t-17.5 47.5q0 30 17 49t46 19t46.5 -19.5t17.5 -48.5z" />
    <glyph glyph-name="uni0100" unicode="&#x100;" horiz-adv-x="600" 
d="M261 535l-95 -281h190zM207 33v-33h-219v33h64l229 667h36l227 -667h69v-33h-301v33h119l-64 188h-212l-64 -188h116zM416 843v-47h-244v47h244z" />
    <glyph glyph-name="uni0101" unicode="&#x101;" horiz-adv-x="554" 
d="M441 -11q-99 0 -104 117q-16 -54 -59.5 -85.5t-100.5 -31.5q-61 0 -98.5 28.5t-37.5 86.5q0 30 16 55.5t35.5 40.5t55 29.5t55 20.5t54.5 15l72 19v70q0 120 -105 120q-56 0 -95 -35q53 -16 53 -66q0 -30 -17.5 -47t-47.5 -17q-29 0 -46.5 17.5t-17.5 46.5q0 45 34 78.5
t78.5 47.5t87.5 14q179 0 179 -149v-279q0 -25 9 -38q7 -13 25 -13q50 0 50 118h30q0 -34 -3 -58.5t-13 -50.5t-32.5 -40t-56.5 -14zM148 120q0 -35 18 -55t52 -20q42 0 68.5 28.5t34.5 63t8 76.5v41l-61 -18q-55 -15 -87.5 -41.5t-32.5 -74.5zM385 719v-47h-244v47h244z
" />
    <glyph glyph-name="uni0104" unicode="&#x104;" horiz-adv-x="600" 
d="M594 -137q-107 0 -107 71q0 52 61 66h-236v33h119l-64 188h-212l-64 -188h116v-33h-219v33h64l229 667h36l227 -667h69v-33q-24 0 -41 -14.5t-17 -38.5q0 -54 65 -54q38 0 53 19l13 -11q-27 -38 -92 -38zM261 535l-95 -281h190z" />
    <glyph glyph-name="uni0105" unicode="&#x105;" horiz-adv-x="555" 
d="M453 -146q-105 0 -105 66q0 55 65 71q-70 15 -76 115q-16 -54 -59.5 -85.5t-100.5 -31.5q-61 0 -98.5 28.5t-37.5 86.5q0 56 50 94q49 35 166 67l72 19v70q0 120 -105 120q-59 0 -97 -35q55 -15 55 -66q0 -30 -17.5 -47t-47.5 -17q-29 0 -46.5 17.5t-17.5 46.5
q0 45 34 78.5t78.5 47.5t87.5 14q179 0 179 -149v-279q0 -25 9 -38q7 -13 25 -13q50 0 50 118h30q0 -29 -2 -50t-9 -45.5t-24 -41t-43 -23.5q-22 -4 -37 -18.5t-15 -35.5q0 -27 18.5 -40.5t46.5 -13.5q34 0 53 22l13 -11q-22 -41 -94 -41zM148 120q0 -34 18 -54.5t52 -20.5
q42 0 68.5 28.5t34.5 63t8 76.5v41l-61 -18q-55 -15 -87.5 -41.5t-32.5 -74.5z" />
    <glyph glyph-name="uni0106" unicode="&#x106;" horiz-adv-x="591" 
d="M531 -10h-18l-40 38q-60 -39 -138 -39q-91 0 -160 54.5t-102.5 134.5t-33.5 168q0 87 34 167t103.5 134t157.5 54q86 0 134 -37l40 36h18v-230h-33q0 87 -35.5 142t-117.5 55q-183 0 -183 -321q0 -323 183 -323q84 0 121 56t37 145h33v-234zM480 835l-182 -95h-30l75 103
q21 27 59 27h75q26 0 27 -10q0 -12 -24 -25z" />
    <glyph glyph-name="uni0107" unicode="&#x107;" horiz-adv-x="489" 
d="M425 153l32 -7q-16 -74 -62.5 -115.5t-120.5 -41.5q-110 0 -169 73t-59 186q0 115 62 190t175 75q72 0 119.5 -38.5t47.5 -109.5q0 -30 -17 -49t-46 -19q-31 0 -49 17t-18 47t19.5 47.5t50.5 21.5q-24 50 -102 50q-30 0 -53 -10t-37 -29.5t-23.5 -41t-13.5 -50t-5.5 -51
t-1.5 -50.5q0 -38 5 -71.5t17 -70.5t39.5 -59t66.5 -22q60 0 93.5 33t49.5 95zM461 713l-200 -123h-30l102 131q21 27 59 27h66q26 0 27 -10q0 -12 -24 -25z" />
    <glyph glyph-name="uni010C" unicode="&#x10c;" horiz-adv-x="591" 
d="M531 -10h-18l-40 38q-60 -39 -138 -39q-91 0 -160 54.5t-102.5 134.5t-33.5 168q0 87 34 167t103.5 134t157.5 54q86 0 134 -37l40 36h18v-230h-33q0 87 -35.5 142t-117.5 55q-183 0 -183 -321q0 -323 183 -323q84 0 121 56t37 145h33v-234zM449 926h27l-128 -172h-27
l-143 172h32l125 -76z" />
    <glyph glyph-name="uni010D" unicode="&#x10d;" horiz-adv-x="489" 
d="M425 153l32 -7q-16 -74 -62.5 -115.5t-120.5 -41.5q-110 0 -169 73t-59 186q0 115 62 190t175 75q72 0 119.5 -38.5t47.5 -109.5q0 -30 -17 -49t-46 -19q-31 0 -49 17t-18 47t19.5 47.5t50.5 21.5q-24 50 -102 50q-30 0 -53 -10t-37 -29.5t-23.5 -41t-13.5 -50t-5.5 -51
t-1.5 -50.5q0 -38 5 -71.5t17 -70.5t39.5 -59t66.5 -22q60 0 93.5 33t49.5 95zM385 753h27l-128 -172h-27l-143 172h32l125 -76z" />
    <glyph glyph-name="uni0112" unicode="&#x112;" 
d="M537 224v-224h-495v33h82v624h-82v33h477v-220h-33v42q0 83 -35 114t-120 31h-100v-290h145v77h37v-195h-37v86h-145v-302h138q79 0 107 36t28 119v36h33zM424 843v-47h-244v47h244z" />
    <glyph glyph-name="uni0113" unicode="&#x113;" horiz-adv-x="519" 
d="M282 -11q-111 0 -173.5 75.5t-62.5 188.5q0 108 60.5 184t165.5 76q104 0 155 -66t51 -173q0 -2 -0.5 -7t-1.5 -7h-322v-11q0 -44 4 -77t17 -70t42 -57t73 -20q61 0 96.5 33t54.5 95l31 -7q-16 -71 -66.5 -114t-123.5 -43zM270 479q-35 0 -58.5 -17t-35 -48.5t-15.5 -58
t-6 -62.5h218q2 98 -24 142t-79 44zM395 719v-47h-244v47h244z" />
    <glyph glyph-name="uni0116" unicode="&#x116;" 
d="M537 224v-224h-495v33h82v624h-82v33h477v-220h-33v42q0 83 -35 114t-120 31h-100v-290h145v77h37v-195h-37v86h-145v-302h138q79 0 107 36t28 119v36h33zM293 891q32 0 51.5 -18t19.5 -50q0 -30 -20 -49t-51 -19t-51 19t-20 49q0 32 19.5 50t51.5 18z" />
    <glyph glyph-name="uni0117" unicode="&#x117;" horiz-adv-x="519" 
d="M273 739q32 0 51 -18t19 -50q0 -31 -19.5 -49t-50.5 -18t-50.5 18t-19.5 49t19.5 49.5t50.5 18.5zM282 -11q-111 0 -173.5 75.5t-62.5 188.5q0 108 60.5 184t165.5 76q104 0 155 -66t51 -173q0 -2 -0.5 -7t-1.5 -7h-322v-11q0 -44 4 -77t17 -70t42 -57t73 -20
q61 0 96.5 33t54.5 95l31 -7q-16 -71 -66.5 -114t-123.5 -43zM270 479q-35 0 -58.5 -17t-35 -48.5t-15.5 -58t-6 -62.5h218q2 98 -24 142t-79 44z" />
    <glyph glyph-name="uni0118" unicode="&#x118;" 
d="M588 -88l13 -11q-27 -38 -92 -38q-43 0 -75 16t-32 55q0 51 62 66h-422v33h82v624h-82v33h477v-220h-33v42q0 83 -35 114t-120 31h-100v-290h145v77h37v-195h-37v86h-145v-302h138q79 0 107 36t28 119v36h33v-224q-28 0 -47.5 -13t-19.5 -40q0 -54 65 -54q16 0 33 5
q15 6 20 14z" />
    <glyph glyph-name="uni0119" unicode="&#x119;" horiz-adv-x="519" 
d="M395 -137q-103 0 -103 70q0 36 49 66q-15 -6 -27 -8q-20 -2 -32 -2q-111 0 -173.5 75.5t-62.5 188.5q0 108 60.5 184t165.5 76q104 0 155 -66t51 -173q0 -2 -0.5 -7t-1.5 -7h-322v-11q0 -36 2 -61.5t10 -58.5t22 -54t40 -35.5t62 -14.5q61 0 96.5 33t54.5 95l31 -7
q-16 -60 -69 -118q-43 -47 -43 -81q0 -26 17.5 -40t44.5 -14q16 0 34 5q15 6 22 14l13 -11q-12 -17 -37 -29q-24 -9 -59 -9zM270 479q-35 0 -58.5 -17t-35 -48.5t-15.5 -58t-6 -62.5h218q2 98 -24 142t-79 44z" />
    <glyph glyph-name="uni011A" unicode="&#x11a;" 
d="M537 224v-224h-495v33h82v624h-82v33h477v-220h-33v42q0 83 -35 114t-120 31h-100v-290h145v77h37v-195h-37v86h-145v-302h138q79 0 107 36t28 119v36h33zM415 926h27l-128 -172h-27l-143 172h32l125 -76z" />
    <glyph glyph-name="uni011B" unicode="&#x11b;" horiz-adv-x="519" 
d="M282 -11q-111 0 -173.5 75.5t-62.5 188.5q0 108 60.5 184t165.5 76q104 0 155 -66t51 -173q0 -2 -0.5 -7t-1.5 -7h-322v-11q0 -44 4 -77t17 -70t42 -57t73 -20q61 0 96.5 33t54.5 95l31 -7q-16 -71 -66.5 -114t-123.5 -43zM270 479q-35 0 -58.5 -17t-35 -48.5t-15.5 -58
t-6 -62.5h218q2 98 -24 142t-79 44zM385 753h27l-128 -172h-27l-143 172h32l125 -76z" />
    <glyph glyph-name="uni0122" unicode="&#x122;" horiz-adv-x="646" 
d="M416 -138q0 -121 -89 -177l-22 24q58 44 63 104q-4 0 -8 -1q-41 0 -59 19t-18 46q0 29 19 48t48 19q34 0 50 -23t16 -59zM552 285v-295h-19l-48 37q-62 -38 -146 -38q-91 0 -161 54t-104.5 134.5t-34.5 168.5t37 168.5t108.5 133.5t160.5 53q92 0 142 -38l40 37h17v-230
h-32q0 89 -38.5 143t-123.5 54q-193 0 -193 -321q0 -35 2.5 -67t9 -71t20 -70.5t33.5 -58t51 -41.5t71 -15q33 0 58 9q24 7 45 25v228h-95v33h275v-33h-75z" />
    <glyph glyph-name="uni0123" unicode="&#x123;" horiz-adv-x="526" 
d="M195 674q0 122 90 180l22 -25q-58 -39 -64 -105q5 0 10 1q76 0 76 -65q0 -30 -18.5 -49t-48.5 -19q-34 0 -50.5 23.5t-16.5 58.5zM169 351q0 -56 22 -94t73 -38t73 38t22 94q0 132 -95 132t-95 -132zM264 92q246 0 246 -168q0 -40 -14 -72t-37 -52.5t-54.5 -34.5
t-65.5 -19.5t-71 -5.5q-42 0 -80 6t-78.5 21t-64.5 46.5t-24 75.5q0 48 38.5 80.5t90.5 44.5q-92 15 -92 95q0 43 34 69t80 30q-45 18 -75.5 57t-30.5 86q0 76 59.5 119t138.5 43q40 0 78 -12h184v-32l-126 3q62 -44 62 -121q0 -73 -61 -117t-137 -44q-72 0 -105 -11
q-31 -12 -31 -38t29 -37q29 -12 107 -12zM117 -108q0 -61 45 -88.5t110 -27.5q69 0 118.5 27.5t49.5 90.5q0 34 -15.5 56.5t-43.5 32.5t-53.5 13t-59.5 3l-75 2q-36 -11 -56 -40.5t-20 -68.5z" />
    <glyph glyph-name="uni012A" unicode="&#x12a;" horiz-adv-x="364" 
d="M236 33h86v-33h-280v33h86v624h-86v33h280v-33h-86v-624zM302 843v-47h-244v47h244z" />
    <glyph glyph-name="uni012B" unicode="&#x12b;" horiz-adv-x="327" 
d="M218 33h77v-33h-258v33h78v436h-78v32q101 0 128 3q26 1 39 11l14 -9v-473zM274 719v-47h-244v47h244z" />
    <glyph glyph-name="uni012E" unicode="&#x12e;" horiz-adv-x="364" 
d="M303 -137q-43 0 -75 16t-32 55q0 51 61 66h-215v33h86v624h-86v33h280v-33h-86v-624h86v-33q-24 0 -41 -15t-17 -38q0 -54 65 -54q34 0 53 19l13 -11q-27 -38 -92 -38z" />
    <glyph glyph-name="uni012F" unicode="&#x12f;" horiz-adv-x="327" 
d="M160 766q32 0 51.5 -18t19.5 -50q0 -30 -20 -49t-51 -19q-32 0 -51.5 18t-19.5 50t19.5 50t51.5 18zM273 -137q-104 0 -104 71q0 47 66 66h-198v33h78v436h-78v32q101 0 128 3q26 1 39 11l14 -9v-473h77v-33q-24 0 -41 -15t-17 -38q0 -54 64 -54q28 0 54 19l13 -11
q-28 -38 -95 -38z" />
    <glyph glyph-name="uni0131" unicode="&#x131;" horiz-adv-x="318" 
d="M218 33h77v-33h-258v33h78v436h-78v32q101 0 128 3q26 1 39 11l14 -9v-473z" />
    <glyph glyph-name="uni0136" unicode="&#x136;" horiz-adv-x="655" 
d="M416 -138q0 -121 -89 -177l-22 24q58 44 63 104q-4 0 -8 -1q-41 0 -59 19t-18 46q0 29 19 48t48 19q34 0 50 -23t16 -59zM231 259v-226h75v-33h-264v33h82v624h-82v33h277v-33h-88v-342l252 342h-90v33h224v-33h-86l-174 -238l246 -386h52v-33h-245v33h71l-194 302z" />
    <glyph glyph-name="uni0137" unicode="&#x137;" horiz-adv-x="584" 
d="M379 -138q0 -121 -89 -177l-22 24q58 44 63 104q-4 0 -8 -1q-41 0 -59 19t-18 46q0 29 19 48t48 19q34 0 50 -23t16 -59zM216 165v-132h64v-33h-244v33h78v684h-78v33q98 0 125 3q25 1 42 10l13 -9v-543l204 258h-93v32h224v-32h-83l-126 -161l187 -275h51v-33h-225v33
h55l-138 203z" />
    <glyph glyph-name="uni0139" unicode="&#x139;" horiz-adv-x="541" 
d="M518 224v-224h-476v33h82v624h-82v33h298v-33h-109v-624h119q80 0 108 36t28 119v36h32zM372 835l-182 -95h-30l75 103q21 27 59 27h75q26 0 27 -10q0 -12 -24 -25z" />
    <glyph glyph-name="uni013A" unicode="&#x13a;" horiz-adv-x="321" 
d="M294 33v-33h-258v33h78v684h-78v33q85 0 118 3q30 1 49 10l13 -9v-721h78zM341 892l-182 -95h-30l75 103q21 27 59 27h75q26 0 27 -10q0 -11 -24 -25z" />
    <glyph glyph-name="uni013B" unicode="&#x13b;" horiz-adv-x="541" 
d="M378 -138q0 -121 -89 -177l-22 24q58 44 63 104q-4 0 -8 -1q-41 0 -59 19t-18 46q0 29 19 48t48 19q34 0 50 -23t16 -59zM518 224v-224h-476v33h82v624h-82v33h298v-33h-109v-624h119q80 0 108 36t28 119v36h32z" />
    <glyph glyph-name="uni013C" unicode="&#x13c;" horiz-adv-x="321" 
d="M242 -138q0 -121 -89 -177l-22 24q58 44 63 104q-4 0 -8 -1q-41 0 -59 19t-18 46q0 29 19 48t48 19q34 0 50 -23t16 -59zM294 33v-33h-258v33h78v684h-78v33q85 0 118 3q30 1 49 10l13 -9v-721h78z" />
    <glyph glyph-name="uni0143" unicode="&#x143;" horiz-adv-x="706" 
d="M166 583v-550h88v-33h-212v33h82v624h-82v33h175l331 -509v476h-87v33h211v-33h-81v-666h-38zM519 835l-182 -95h-30l75 103q21 27 59 27h75q26 0 27 -10q0 -12 -24 -25z" />
    <glyph glyph-name="uni0144" unicode="&#x144;" horiz-adv-x="650" 
d="M218 287v-254h75v-33h-256v33h78v436h-78v32q89 0 115 3q24 1 35 11l14 -9v-143q9 70 54 110t115 40q174 0 174 -200v-280h77v-33h-255v33h75v273q0 155 -110 155q-113 0 -113 -174zM499 713l-200 -123h-30l102 131q21 27 59 27h66q26 0 27 -10q0 -12 -24 -25z" />
    <glyph glyph-name="uni0145" unicode="&#x145;" horiz-adv-x="706" 
d="M441 -138q0 -121 -89 -177l-22 24q58 44 63 104q-4 0 -8 -1q-41 0 -59 19t-18 46q0 29 19 48t48 19q34 0 50 -23t16 -59zM166 583v-550h88v-33h-212v33h82v624h-82v33h175l331 -509v476h-87v33h211v-33h-81v-666h-38z" />
    <glyph glyph-name="uni0146" unicode="&#x146;" horiz-adv-x="650" 
d="M393 -138q0 -121 -89 -177l-22 24q58 44 63 104q-4 0 -8 -1q-41 0 -59 19t-18 46q0 29 19 48t48 19q34 0 50 -23t16 -59zM218 287v-254h75v-33h-256v33h78v436h-78v32q89 0 115 3q24 1 35 11l14 -9v-143q9 70 54 110t115 40q174 0 174 -200v-280h77v-33h-255v33h75v273
q0 155 -110 155q-113 0 -113 -174z" />
    <glyph glyph-name="uni0147" unicode="&#x147;" horiz-adv-x="706" 
d="M166 583v-550h88v-33h-212v33h82v624h-82v33h175l331 -509v476h-87v33h211v-33h-81v-666h-38zM473 926h27l-128 -172h-27l-143 172h32l125 -76z" />
    <glyph glyph-name="uni0148" unicode="&#x148;" horiz-adv-x="650" 
d="M218 287v-254h75v-33h-256v33h78v436h-78v32q89 0 115 3q24 1 35 11l14 -9v-143q9 70 54 110t115 40q174 0 174 -200v-280h77v-33h-255v33h75v273q0 155 -110 155q-113 0 -113 -174zM440 753h27l-128 -172h-27l-143 172h32l125 -76z" />
    <glyph glyph-name="uni014C" unicode="&#x14c;" horiz-adv-x="656" 
d="M328 701q93 0 160.5 -53.5t98 -132.5t30.5 -170t-30.5 -170t-98 -132.5t-160.5 -53.5q-92 0 -160 54t-98.5 133t-30.5 169t30.5 169t98.5 133t160 54zM328 668q-39 0 -69 -15t-48 -43t-29.5 -58t-16.5 -71t-6.5 -70t-1.5 -66t1.5 -66t6.5 -70t16.5 -71t29.5 -58t48 -43
t69 -15t69.5 15t48 43t29 57.5t16.5 71t6.5 70t1.5 66.5t-1.5 66.5t-6.5 70t-16.5 71t-29 57.5t-48 43t-69.5 15zM445 843v-47h-244v47h244z" />
    <glyph glyph-name="uni014D" unicode="&#x14d;" horiz-adv-x="568" 
d="M283 513q107 0 173 -77t66 -186q0 -108 -66.5 -184.5t-172.5 -76.5q-108 0 -172.5 75t-64.5 186t64 187t173 76zM283 479q-43 0 -71 -21.5t-39.5 -60.5t-15 -71t-3.5 -76q0 -34 1.5 -59.5t9 -59.5t20.5 -56t38 -37.5t60 -15.5q131 0 131 228q0 229 -131 229zM399 719v-47
h-244v47h244z" />
    <glyph glyph-name="uni0150" unicode="&#x150;" horiz-adv-x="656" 
d="M328 701q93 0 160.5 -53.5t98 -132.5t30.5 -170t-30.5 -170t-98 -132.5t-160.5 -53.5q-92 0 -160 54t-98.5 133t-30.5 169t30.5 169t98.5 133t160 54zM328 668q-39 0 -69 -15t-48 -43t-29.5 -58t-16.5 -71t-6.5 -70t-1.5 -66t1.5 -66t6.5 -70t16.5 -71t29.5 -58t48 -43
t69 -15t69.5 15t48 43t29 57.5t16.5 71t6.5 70t1.5 66.5t-1.5 66.5t-6.5 70t-16.5 71t-29 57.5t-48 43t-69.5 15zM393 836l-102 -96h-30l37 104q6 26 49 26h34q26 0 29 -8t-17 -26zM584 836l-183 -96h-32l94 104q21 26 59 26h60q27 0 27 -10q-2 -11 -25 -24z" />
    <glyph glyph-name="uni0151" unicode="&#x151;" horiz-adv-x="559" 
d="M283 513q107 0 173 -77t66 -186q0 -108 -66.5 -184.5t-172.5 -76.5q-108 0 -172.5 75t-64.5 186t64 187t173 76zM283 479q-43 0 -71 -21.5t-39.5 -60.5t-15 -71t-3.5 -76q0 -34 1.5 -59.5t9 -59.5t20.5 -56t38 -37.5t60 -15.5q131 0 131 228q0 229 -131 229zM340 714
l-120 -124h-30l45 132q3 12 15 20q12 6 34 6h44q25 0 29 -7q3 -7 -17 -27zM531 714l-201 -124h-31l105 132q10 12 25 20q15 6 34 6h66q26 0 26 -10t-24 -24z" />
    <glyph glyph-name="uni0154" unicode="&#x154;" horiz-adv-x="651" 
d="M545 -11q-44 0 -69 22.5t-42 65.5q-4 12 -23 79q-9 33 -14.5 52t-17.5 43t-26.5 37t-37.5 22t-54 9h-30v-286h112v-33h-301v33h82v624h-82v33h220q51 0 96.5 -7.5t91.5 -26t73.5 -56t27.5 -91.5q0 -74 -62 -120.5t-142 -55.5q121 -46 154 -100q13 -21 25 -72
q21 -90 31 -109q7 -15 22 -15q20 0 29 28q9 29 9 87h30q0 -33 -3 -57t-12.5 -51t-31.5 -41t-55 -14zM436 508q0 149 -170 149h-35v-306h33q172 0 172 157zM469 835l-182 -95h-30l75 103q21 27 59 27h75q26 0 27 -10q0 -12 -24 -25z" />
    <glyph glyph-name="uni0155" unicode="&#x155;" horiz-adv-x="468" 
d="M218 225v-192h118v-33h-299v33h78v436h-78v32q85 0 115 2q23 2 35 12l14 -9v-147q9 65 44.5 109.5t96.5 44.5q50 0 81 -28.5t31 -78.5q0 -34 -16 -56t-49 -22q-31 0 -50 18t-19 49q0 55 64 66q-16 18 -50 18q-36 0 -61.5 -28.5t-36 -73.5t-14.5 -81t-4 -71zM417 713
l-200 -123h-30l102 131q21 27 59 27h66q26 0 27 -10q0 -12 -24 -25z" />
    <glyph glyph-name="uni0156" unicode="&#x156;" horiz-adv-x="651" 
d="M412 -138q0 -121 -89 -177l-22 24q58 44 63 104q-4 0 -8 -1q-41 0 -59 19t-18 46q0 29 19 48t48 19q34 0 50 -23t16 -59zM545 -11q-44 0 -69 22.5t-42 65.5q-4 12 -23 79q-9 33 -14.5 52t-17.5 43t-26.5 37t-37.5 22t-54 9h-30v-286h112v-33h-301v33h82v624h-82v33h220
q51 0 96.5 -7.5t91.5 -26t73.5 -56t27.5 -91.5q0 -74 -62 -120.5t-142 -55.5q121 -46 154 -100q13 -21 25 -72q21 -90 31 -109q7 -15 22 -15q20 0 29 28q9 29 9 87h30q0 -33 -3 -57t-12.5 -51t-31.5 -41t-55 -14zM436 508q0 149 -170 149h-35v-306h33q172 0 172 157z" />
    <glyph glyph-name="uni0157" unicode="&#x157;" horiz-adv-x="468" 
d="M242 -138q0 -121 -89 -177l-22 24q58 44 63 104q-4 0 -8 -1q-41 0 -59 19t-18 46q0 29 19 48t48 19q34 0 50 -23t16 -59zM218 225v-192h118v-33h-299v33h78v436h-78v32q85 0 115 2q23 2 35 12l14 -9v-147q9 65 44.5 109.5t96.5 44.5q50 0 81 -28.5t31 -78.5
q0 -34 -16 -56t-49 -22q-31 0 -50 18t-19 49q0 55 64 66q-16 18 -50 18q-36 0 -61.5 -28.5t-36 -73.5t-14.5 -81t-4 -71z" />
    <glyph glyph-name="uni0158" unicode="&#x158;" horiz-adv-x="651" 
d="M545 -11q-44 0 -69 22.5t-42 65.5q-4 12 -23 79q-9 33 -14.5 52t-17.5 43t-26.5 37t-37.5 22t-54 9h-30v-286h112v-33h-301v33h82v624h-82v33h220q51 0 96.5 -7.5t91.5 -26t73.5 -56t27.5 -91.5q0 -74 -62 -120.5t-142 -55.5q121 -46 154 -100q13 -21 25 -72
q21 -90 31 -109q7 -15 22 -15q20 0 29 28q9 29 9 87h30q0 -33 -3 -57t-12.5 -51t-31.5 -41t-55 -14zM436 508q0 149 -170 149h-35v-306h33q172 0 172 157zM420 926h27l-128 -172h-27l-143 172h32l125 -76z" />
    <glyph glyph-name="uni0159" unicode="&#x159;" horiz-adv-x="468" 
d="M218 225v-192h118v-33h-299v33h78v436h-78v32q85 0 115 2q23 2 35 12l14 -9v-147q9 65 44.5 109.5t96.5 44.5q50 0 81 -28.5t31 -78.5q0 -34 -16 -56t-49 -22q-31 0 -50 18t-19 49q0 55 64 66q-16 18 -50 18q-36 0 -61.5 -28.5t-36 -73.5t-14.5 -81t-4 -71zM353 753h27
l-128 -172h-27l-143 172h32l125 -76z" />
    <glyph glyph-name="uni015A" unicode="&#x15a;" horiz-adv-x="501" 
d="M462 178q0 -88 -55 -138.5t-144 -50.5q-99 0 -167 52l-40 -51h-17v233h32q0 -86 51.5 -143t136.5 -57q64 0 100.5 31.5t36.5 94.5q0 46 -19.5 71.5t-62.5 45.5q-19 7 -88 27q-93 27 -138 75t-45 139q0 88 51.5 141t138.5 53q94 0 148 -51l36 50h18v-230h-33
q0 75 -44 135.5t-117 60.5q-62 0 -97.5 -31.5t-35.5 -92.5q0 -69 54 -103l30 -15t84 -30q103 -33 136 -72q50 -50 50 -144zM399 835l-182 -95h-30l75 103q21 27 59 27h75q26 0 27 -10q0 -12 -24 -25z" />
    <glyph glyph-name="uni015B" unicode="&#x15b;" horiz-adv-x="446" 
d="M104 28l-44 -39h-14v182h34q0 -73 41 -111t115 -38q45 0 72 21.5t27 65.5q0 60 -69 81q-3 1 -12.5 3.5t-21.5 6t-24 6.5q-77 18 -117.5 53t-40.5 106q0 69 42.5 108.5t111.5 39.5q71 0 115 -37l39 37h14v-178h-33q0 67 -32.5 105t-97.5 38q-42 0 -69 -20.5t-27 -61.5
q0 -45 45 -69q10 -5 24 -9q16 -5 61 -18q78 -20 117.5 -55.5t39.5 -108.5q0 -72 -43 -109.5t-116 -37.5q-72 0 -137 39zM413 713l-200 -123h-30l102 131q21 27 59 27h66q26 0 27 -10q0 -12 -24 -25z" />
    <glyph glyph-name="uni0160" unicode="&#x160;" horiz-adv-x="501" 
d="M462 178q0 -88 -55 -138.5t-144 -50.5q-99 0 -167 52l-40 -51h-17v233h32q0 -86 51.5 -143t136.5 -57q64 0 100.5 31.5t36.5 94.5q0 46 -19.5 71.5t-62.5 45.5q-19 7 -88 27q-93 27 -138 75t-45 139q0 88 51.5 141t138.5 53q94 0 148 -51l36 50h18v-230h-33
q0 75 -44 135.5t-117 60.5q-62 0 -97.5 -31.5t-35.5 -92.5q0 -69 54 -103l30 -15t84 -30q103 -33 136 -72q50 -50 50 -144zM368 926h27l-128 -172h-27l-143 172h32l125 -76z" />
    <glyph glyph-name="uni0161" unicode="&#x161;" horiz-adv-x="446" 
d="M104 28l-44 -39h-14v182h34q0 -73 41 -111t115 -38q45 0 72 21.5t27 65.5q0 60 -69 81q-3 1 -12.5 3.5t-21.5 6t-24 6.5q-77 18 -117.5 53t-40.5 106q0 69 42.5 108.5t111.5 39.5q71 0 115 -37l39 37h14v-178h-33q0 67 -32.5 105t-97.5 38q-42 0 -69 -20.5t-27 -61.5
q0 -45 45 -69q10 -5 24 -9q16 -5 61 -18q78 -20 117.5 -55.5t39.5 -108.5q0 -72 -43 -109.5t-116 -37.5q-72 0 -137 39zM342 753h27l-128 -172h-27l-143 172h32l125 -76z" />
    <glyph glyph-name="uni016A" unicode="&#x16a;" horiz-adv-x="653" 
d="M628 657h-82v-425q0 -120 -45 -181.5t-160 -61.5q-123 0 -179 60t-56 184v424h-82v33h283v-33h-93v-432q0 -43 5.5 -75.5t20 -63t44.5 -47t74 -16.5q45 0 75.5 16.5t45 47.5t20 64t5.5 78v428h-93v33h217v-33zM472 843v-47h-244v47h244z" />
    <glyph glyph-name="uni016B" unicode="&#x16b;" horiz-adv-x="612" 
d="M443 -14l-14 9v136q-22 -142 -160 -142q-90 0 -127.5 52t-37.5 147v281h-87v32q106 0 136 3q29 2 40 11l13 -9v-311q0 -32 3.5 -56t13 -48.5t31.5 -37.5t54 -13q104 0 104 174v255h-122v32q132 0 166 3q34 1 45 11l14 -9v-473h78v-33q-92 0 -150 -14zM443 719v-47h-244
v47h244z" />
    <glyph glyph-name="uni016E" unicode="&#x16e;" horiz-adv-x="653" 
d="M628 657h-82v-425q0 -120 -45 -181.5t-160 -61.5q-123 0 -179 60t-56 184v424h-82v33h283v-33h-93v-432q0 -43 5.5 -75.5t20 -63t44.5 -47t74 -16.5q45 0 75.5 16.5t45 47.5t20 64t5.5 78v428h-93v33h217v-33zM361 909q38 0 62 -23.5t24 -61.5q0 -37 -24.5 -60.5
t-61.5 -23.5t-61.5 23.5t-24.5 60.5q0 39 23.5 62t62.5 23zM362 868q-20 0 -31 -12t-11 -32q0 -45 42 -45q20 0 32 13q11 14 11 32q0 17 -11 31q-12 13 -32 13z" />
    <glyph glyph-name="uni016F" unicode="&#x16f;" horiz-adv-x="612" 
d="M443 -14l-14 9v136q-22 -142 -160 -142q-90 0 -127.5 52t-37.5 147v281h-87v32q106 0 136 3q29 2 40 11l13 -9v-311q0 -32 3.5 -56t13 -48.5t31.5 -37.5t54 -13q104 0 104 174v255h-122v32q132 0 166 3q34 1 45 11l14 -9v-473h78v-33q-92 0 -150 -14zM314 766
q38 0 62 -23.5t24 -61.5q0 -37 -24.5 -60.5t-61.5 -23.5t-61.5 23.5t-24.5 60.5q0 39 23.5 62t62.5 23zM315 725q-20 0 -31 -12t-11 -32q0 -45 42 -45q20 0 32 13q11 14 11 32q0 17 -11 31q-12 13 -32 13z" />
    <glyph glyph-name="uni0170" unicode="&#x170;" horiz-adv-x="653" 
d="M628 657h-82v-425q0 -120 -45 -181.5t-160 -61.5q-123 0 -179 60t-56 184v424h-82v33h283v-33h-93v-432q0 -43 5.5 -75.5t20 -63t44.5 -47t74 -16.5q45 0 75.5 16.5t45 47.5t20 64t5.5 78v428h-93v33h217v-33zM405 836l-102 -96h-30l37 104q6 26 49 26h34q26 0 29 -8
t-17 -26zM596 836l-183 -96h-32l94 104q21 26 59 26h60q27 0 27 -10q-2 -11 -25 -24z" />
    <glyph glyph-name="uni0171" unicode="&#x171;" horiz-adv-x="612" 
d="M443 -14l-14 9v136q-22 -142 -160 -142q-90 0 -127.5 52t-37.5 147v281h-87v32q106 0 136 3q29 2 40 11l13 -9v-311q0 -32 3.5 -56t13 -48.5t31.5 -37.5t54 -13q104 0 104 174v255h-122v32q132 0 166 3q34 1 45 11l14 -9v-473h78v-33q-92 0 -150 -14zM393 714l-120 -124
h-30l45 132q3 12 15 20q12 6 34 6h44q25 0 29 -7q3 -7 -17 -27zM584 714l-201 -124h-31l105 132q10 12 25 20q15 6 34 6h66q26 0 26 -10t-24 -24z" />
    <glyph glyph-name="uni0172" unicode="&#x172;" horiz-adv-x="653" 
d="M367 -147q-43 0 -74.5 16t-31.5 55q0 44 52 66q-110 7 -158.5 68t-48.5 175v424h-82v33h283v-33h-93v-432q0 -43 5.5 -75.5t20 -63t44.5 -47t74 -16.5q45 0 75.5 16.5t45 47.5t20 64t5.5 78v428h-93v33h217v-33h-82v-425q0 -104 -34.5 -166.5t-127.5 -74.5
q-22 0 -38.5 -16t-16.5 -38q0 -27 18.5 -40.5t46.5 -13.5q33 0 53 18l13 -11q-10 -17 -35 -28q-24 -9 -58 -9z" />
    <glyph glyph-name="uni0173" unicode="&#x173;" horiz-adv-x="612" 
d="M570 -137q-103 0 -103 65q0 25 18 43.5t44 26.5q-60 -4 -86 -12l-14 9v136q-22 -142 -160 -142q-90 0 -127.5 52t-37.5 147v281h-87v32q106 0 136 3q29 2 40 11l13 -9v-311q0 -32 3.5 -56t13 -48.5t31.5 -37.5t54 -13q104 0 104 174v255h-122v32q120 0 161 3q39 3 50 11
l14 -9v-473h78v-33q-24 0 -41 -14.5t-17 -38.5q0 -54 65 -54q33 0 53 18l13 -11q-23 -37 -96 -37z" />
    <glyph glyph-name="uni0178" unicode="&#x178;" horiz-adv-x="603" 
d="M452 33v-33h-283v33h87v281l-181 343h-70v33h286v-33h-105l155 -293l146 293h-87v33h198v-33h-68l-166 -334v-290h88zM299 823q0 -28 -18 -47.5t-46 -19.5q-29 0 -46.5 19t-17.5 48q0 30 17 49t47 19q29 0 46.5 -19.5t17.5 -48.5zM491 823q0 -28 -18 -47.5t-46 -19.5
t-45.5 19.5t-17.5 47.5q0 30 17 49t46 19t46.5 -19.5t17.5 -48.5z" />
    <glyph glyph-name="uni0179" unicode="&#x179;" horiz-adv-x="527" 
d="M498 224v-224h-469v23l347 634h-160q-82 0 -113.5 -31.5t-31.5 -113.5v-42h-32v220h450v-23l-349 -634h191q79 0 107 36t28 119v36h32zM437 835l-182 -95h-30l75 103q21 27 59 27h75q26 0 27 -10q0 -12 -24 -25z" />
    <glyph glyph-name="uni017A" unicode="&#x17a;" horiz-adv-x="471" 
d="M439 181v-181h-407v23l293 446h-136q-60 0 -84 -30.5t-24 -92.5v-25h-33v180h387v-22l-293 -446h156q61 0 84.5 30.5t23.5 93.5v24h33zM408 716l-200 -123h-30l102 131q21 27 59 27h66q26 0 27 -10q0 -11 -24 -25z" />
    <glyph glyph-name="uni017B" unicode="&#x17b;" horiz-adv-x="527" 
d="M498 224v-224h-469v23l347 634h-160q-82 0 -113.5 -31.5t-31.5 -113.5v-42h-32v220h450v-23l-349 -634h191q79 0 107 36t28 119v36h32zM267 899q32 0 51.5 -18t19.5 -50q0 -30 -20 -49t-51 -19t-51 19t-20 49q0 32 19.5 50t51.5 18z" />
    <glyph glyph-name="uni017C" unicode="&#x17c;" horiz-adv-x="471" 
d="M439 181v-181h-407v23l293 446h-136q-60 0 -84 -30.5t-24 -92.5v-25h-33v180h387v-22l-293 -446h156q61 0 84.5 30.5t23.5 93.5v24h33zM239 766q32 0 51.5 -18t19.5 -50q0 -30 -20 -49t-51 -19t-51 19t-20 49q0 32 19.5 50t51.5 18z" />
    <glyph glyph-name="uni017D" unicode="&#x17d;" horiz-adv-x="527" 
d="M498 224v-224h-469v23l347 634h-160q-82 0 -113.5 -31.5t-31.5 -113.5v-42h-32v220h450v-23l-349 -634h191q79 0 107 36t28 119v36h32zM384 926h27l-128 -172h-27l-143 172h32l125 -76z" />
    <glyph glyph-name="uni017E" unicode="&#x17e;" horiz-adv-x="471" 
d="M439 181v-181h-407v23l293 446h-136q-60 0 -84 -30.5t-24 -92.5v-25h-33v180h387v-22l-293 -446h156q61 0 84.5 30.5t23.5 93.5v24h33zM364 753h27l-128 -172h-27l-143 172h32l125 -76z" />
    <glyph glyph-name="uni0401" unicode="&#x401;" 
d="M537 224v-224h-495v33h82v624h-82v33h477v-220h-33v42q0 83 -35 114t-120 31h-100v-290h145v77h37v-195h-37v86h-145v-302h138q79 0 107 36t28 119v36h33zM264 823q0 -28 -18 -47.5t-46 -19.5q-29 0 -46.5 19t-17.5 48q0 30 17 49t47 19q29 0 46.5 -19.5t17.5 -48.5z
M456 823q0 -28 -18 -47.5t-46 -19.5t-45.5 19.5t-17.5 47.5q0 30 17 49t46 19t46.5 -19.5t17.5 -48.5z" />
    <glyph glyph-name="uni0403" unicode="&#x403;" horiz-adv-x="533" 
d="M366 33v-33h-324v33h82v624h-82v33h471v-220h-32v42q0 83 -35.5 114t-120.5 31h-94v-624h135zM455 835l-182 -95h-30l75 103q21 27 59 27h75q26 0 27 -10q0 -12 -24 -25z" />
    <glyph glyph-name="uni040E" unicode="&#x40e;" horiz-adv-x="573" 
d="M174 -11q-54 0 -84.5 35.5t-30.5 90.5q0 33 19 54t51 21q30 0 47.5 -18.5t17.5 -48.5q0 -63 -77 -67q8 -17 23 -24q15 -9 37 -9q34 0 58 24q23 23 60 111l-231 499h-76v33h306v-33h-120l172 -371l137 371h-93v33h205v-33h-70l-149 -396q-67 -179 -104 -226
q-36 -46 -98 -46zM448 959q28 0 43 -17t15 -45q0 -66 -51 -105.5t-119 -39.5t-119.5 39.5t-51.5 105.5q0 28 15.5 45t42.5 17q24 0 40 -14q14 -14 14 -37q0 -24 -16.5 -39.5t-40.5 -15.5q-10 0 -22 3q28 -49 138 -49q116 0 142 50q-20 -4 -28 -4q-26 0 -40.5 14.5
t-14.5 40.5q0 24 15 37q14 14 38 14z" />
    <glyph glyph-name="uni0410" unicode="&#x410;" horiz-adv-x="600" 
d="M261 535l-95 -281h190zM207 33v-33h-219v33h64l229 667h36l227 -667h69v-33h-301v33h119l-64 188h-212l-64 -188h116z" />
    <glyph glyph-name="uni0411" unicode="&#x411;" horiz-adv-x="592" 
d="M296 0h-254v33h82v624h-82v33h472v-211h-33v33q0 83 -35 114t-120 31h-95v-275h68q46 0 90.5 -10.5t84.5 -31.5t65 -59t25 -87q0 -56 -23 -95.5t-63 -60t-84.5 -29.5t-97.5 -9zM448 194q0 75 -41 115.5t-116 40.5h-60v-317h57q83 0 121.5 39t38.5 122z" />
    <glyph glyph-name="uni0412" unicode="&#x412;" horiz-adv-x="609" 
d="M309 0h-267v33h82v624h-82v33h212q289 0 289 -171q0 -67 -44.5 -110.5t-112.5 -53.5q82 -12 136 -52.5t54 -114.5q0 -188 -267 -188zM429 518q0 77 -43 108t-124 31h-31v-290h63q135 0 135 151zM459 189q0 148 -159 148h-69v-304h67q84 0 122.5 36.5t38.5 119.5z" />
    <glyph glyph-name="uni0413" unicode="&#x413;" horiz-adv-x="533" 
d="M366 33v-33h-324v33h82v624h-82v33h471v-220h-32v42q0 83 -35.5 114t-120.5 31h-94v-624h135z" />
    <glyph glyph-name="uni0414" unicode="&#x414;" horiz-adv-x="628" 
d="M121 33h283v624h-192q-1 -93 -3 -154t-9.5 -159.5t-27.5 -177t-51 -133.5zM41 -148v-32h-32v213h62q54 79 76 221q20 138 22 403h-81v33h505v-33h-82v-624h98v-213h-33v32q0 84 -30.5 116t-114.5 32h-244q-83 0 -114.5 -32t-31.5 -116z" />
    <glyph glyph-name="uni0415" unicode="&#x415;" 
d="M537 224v-224h-495v33h82v624h-82v33h477v-220h-33v42q0 83 -35 114t-120 31h-100v-290h145v77h37v-195h-37v86h-145v-302h138q79 0 107 36t28 119v36h33z" />
    <glyph glyph-name="uni0416" unicode="&#x416;" horiz-adv-x="956" 
d="M839 -11q-32 0 -55 11.5t-38.5 37.5t-23 45.5t-18.5 56.5l-2 6q-1 5 -4.5 18t-7.5 25q-30 102 -62 129q-22 18 -52 18h-42v-303h79v-33h-262v33h79v303h-51q-59 0 -91 -76l-13 -39q-7 -21 -25 -81q-8 -28 -22 -66q-23 -57 -56 -73q-22 -12 -55 -12q-29 0 -49.5 11
t-31 25.5t-16 41t-6.5 45t-1 49.5h30q0 -65 9 -95q8 -30 28 -30q15 0 25 16q8 12 32 86q24 83 35 107q10 22 26 39.5t39.5 30t40 19.5t46.5 17q-32 6 -53 39q-21 31 -44 130q-21 95 -40 122q-19 28 -50 28q-16 0 -27 -8q30 -2 48 -18q17 -19 17 -46q0 -28 -17 -46t-45 -18
q-32 0 -50.5 20.5t-18.5 53.5q0 40 26 66.5t67 26.5q78 0 111 -105q8 -24 18 -75q20 -96 42 -124q21 -29 55 -29h67v289h-79v33h262v-33h-79v-289h59q34 0 57 29q20 27 40 125q10 51 18 75q6 25 15 41q30 63 92 63q45 0 70 -24.5t25 -69.5q0 -73 -63 -73q-31 0 -49 18
q-19 16 -19 48q0 26 15.5 44t41.5 21q-7 5 -26 5q-27 0 -45 -27q-18 -28 -37 -119q-21 -98 -42 -133q-22 -34 -55 -40q44 -16 65 -25t48 -30.5t43 -52.5q7 -17 34 -105q24 -79 34 -90q9 -12 24 -12q17 0 26 31q8 34 8 94h30q0 -31 -1 -49.5t-6.5 -45t-16 -41t-31 -25.5
t-49.5 -11z" />
    <glyph glyph-name="uni0417" unicode="&#x417;" horiz-adv-x="545" 
d="M512 179q0 -95 -67 -142.5t-167 -47.5q-95 0 -162 38l-40 -37h-17v233h32q0 -86 40 -143t122 -57q142 0 142 159q0 164 -155 164h-75v33h75q130 0 130 152q0 136 -118 136q-53 0 -88 -30t-48.5 -72.5t-13.5 -94.5h-32v230h17l40 -37q61 38 145 38q92 0 152 -40t60 -127
q0 -67 -49 -109.5t-120 -57.5q86 -12 141.5 -59t55.5 -129z" />
    <glyph glyph-name="uni0418" unicode="&#x418;" horiz-adv-x="744" 
d="M231 33h88v-33h-277v33h82v624h-82v33h277v-33h-88v-483l281 423v60h-88v33h278v-33h-82v-624h82v-33h-278v33h88v498l-281 -423v-75z" />
    <glyph glyph-name="uni0419" unicode="&#x419;" horiz-adv-x="744" 
d="M231 33h88v-33h-277v33h82v624h-82v33h277v-33h-88v-483l281 423v60h-88v33h278v-33h-82v-624h82v-33h-278v33h88v498l-281 -423v-75zM485 959q28 0 43 -17t15 -45q0 -66 -51 -105.5t-119 -39.5t-119.5 39.5t-51.5 105.5q0 28 15.5 45t42.5 17q24 0 40 -14q14 -14 14 -37
q0 -24 -16.5 -39.5t-40.5 -15.5q-10 0 -22 3q28 -49 138 -49q116 0 142 50q-20 -4 -28 -4q-26 0 -40.5 14.5t-14.5 40.5q0 24 15 37q14 14 38 14z" />
    <glyph glyph-name="uni041A" unicode="&#x41a;" horiz-adv-x="653" 
d="M541 -11q-49 0 -78 30q-28 28 -57 121q-33 113 -66 155q-33 41 -79 41h-34v-303h88v-33h-273v33h82v624h-82v33h266v-33h-81v-289h69q34 0 57 29q20 27 40 125q11 51 18 75q6 25 15 41q30 63 92 63q45 0 70 -24.5t25 -69.5q0 -73 -63 -73q-31 0 -49 18q-19 16 -19 48
q0 26 15.5 44t41.5 21q-7 5 -26 5q-27 0 -45 -27q-18 -28 -37 -119q-21 -98 -42 -133q-22 -34 -55 -40q63 -26 88 -40q46 -28 70 -77q14 -33 31 -96q23 -76 32 -88q11 -14 26 -14q17 0 26 31q8 34 8 94h29q0 -31 -1 -49t-6.5 -44.5t-15.5 -41.5t-30.5 -26t-49.5 -11z" />
    <glyph glyph-name="uni041B" unicode="&#x41b;" horiz-adv-x="674" 
d="M361 33h86v624h-176q0 -162 -1 -220q-6 -298 -48 -383q-32 -65 -106 -65q-46 0 -73.5 30.5t-27.5 76.5q0 32 17.5 53.5t49.5 21.5q29 0 47 -18q17 -20 17 -47q0 -32 -21 -48t-54 -16q11 -20 46 -20q53 0 77 64q23 66 29 230q4 152 4 341h-101v33h507v-33h-82v-624h82v-33
h-272v33z" />
    <glyph glyph-name="uni041C" unicode="&#x41c;" horiz-adv-x="860" 
d="M166 613v-580h105v-33h-229v33h82v624h-82v33h199l190 -448l189 448h198v-33h-82v-624h82v-33h-289v33h99v579l-219 -521h-23z" />
    <glyph glyph-name="uni041D" unicode="&#x41d;" horiz-adv-x="725" 
d="M311 33v-33h-269v33h82v624h-82v33h269v-33h-80v-289h263v289h-80v33h269v-33h-82v-624h82v-33h-269v33h80v303h-263v-303h80z" />
    <glyph glyph-name="uni041E" unicode="&#x41e;" horiz-adv-x="656" 
d="M328 701q93 0 160.5 -53.5t98 -132.5t30.5 -170t-30.5 -170t-98 -132.5t-160.5 -53.5q-92 0 -160 54t-98.5 133t-30.5 169t30.5 169t98.5 133t160 54zM328 668q-39 0 -69 -15t-48 -43t-29.5 -58t-16.5 -71t-6.5 -70t-1.5 -66t1.5 -66t6.5 -70t16.5 -71t29.5 -58t48 -43
t69 -15t69.5 15t48 43t29 57.5t16.5 71t6.5 70t1.5 66.5t-1.5 66.5t-6.5 70t-16.5 71t-29 57.5t-48 43t-69.5 15z" />
    <glyph glyph-name="uni041F" unicode="&#x41f;" horiz-adv-x="711" 
d="M311 33v-33h-269v33h82v624h-82v33h627v-33h-82v-624h82v-33h-269v33h79v624h-248v-624h80z" />
    <glyph glyph-name="uni0420" unicode="&#x420;" horiz-adv-x="580" 
d="M349 33v-33h-307v33h82v624h-82v33h220q54 0 101 -8.5t91.5 -29t70.5 -61.5t26 -98q0 -46 -17 -82.5t-45 -59t-66 -37.5t-76.5 -21t-81.5 -6h-34v-254h118zM436 492q0 87 -41.5 126t-128.5 39h-35v-337h37q88 0 128 42t40 130z" />
    <glyph glyph-name="uni0421" unicode="&#x421;" horiz-adv-x="591" 
d="M531 -10h-18l-40 38q-60 -39 -138 -39q-91 0 -160 54.5t-102.5 134.5t-33.5 168q0 87 34 167t103.5 134t157.5 54q86 0 134 -37l40 36h18v-230h-33q0 87 -35.5 142t-117.5 55q-183 0 -183 -321q0 -323 183 -323q84 0 121 56t37 145h33v-234z" />
    <glyph glyph-name="uni0422" unicode="&#x422;" horiz-adv-x="565" 
d="M440 33v-33h-315v33h104v624h-38q-81 0 -110.5 -32t-29.5 -113v-42h-32v220h527v-220h-32v42q0 82 -29.5 113.5t-110.5 31.5h-38v-624h104z" />
    <glyph glyph-name="uni0423" unicode="&#x423;" horiz-adv-x="573" 
d="M174 -11q-54 0 -84.5 35.5t-30.5 90.5q0 33 19 54t51 21q30 0 47.5 -18.5t17.5 -48.5q0 -63 -77 -67q8 -17 23 -24q15 -9 37 -9q34 0 58 24q23 23 60 111l-231 499h-76v33h306v-33h-120l172 -371l137 371h-93v33h205v-33h-70l-149 -396q-67 -179 -104 -226
q-36 -46 -98 -46z" />
    <glyph glyph-name="uni0424" unicode="&#x424;" horiz-adv-x="786" 
d="M547 23v-33h-308v33h100v102q-56 3 -107.5 16.5t-99.5 39.5t-76.5 71t-28.5 104q0 60 28.5 104.5t76.5 69.5t99 38t108 17v82h-100v33h308v-33h-100v-82q57 -3 108 -16t98.5 -38t76 -70t28.5 -105q0 -59 -28.5 -104.5t-76 -71t-99 -39t-107.5 -16.5v-102h100zM144 356
q0 -97 48.5 -144.5t146.5 -52.5v393q-102 -5 -148.5 -50t-46.5 -146zM642 356q0 100 -46.5 145t-148.5 50v-392q101 5 148 51t47 146z" />
    <glyph glyph-name="uni0425" unicode="&#x425;" horiz-adv-x="601" 
d="M211 33v-33h-205v33h66l177 307l-174 317h-69v33h274v-33h-90l129 -235l134 235h-74v33h189v-33h-72l-156 -272l193 -352h62v-33h-284v33h106l-147 268l-153 -268h94z" />
    <glyph glyph-name="uni0426" unicode="&#x426;" horiz-adv-x="706" 
d="M687 33v-213h-32v32q0 84 -31.5 116t-114.5 32h-467v33h82v624h-82v33h260v-33h-71v-624h248v624h-70v33h260v-33h-82v-624h100z" />
    <glyph glyph-name="uni0427" unicode="&#x427;" horiz-adv-x="653" 
d="M611 33v-33h-297v33h112v298q-64 -31 -143 -31q-102 0 -151 46t-49 147v164h-82v33h259v-33h-73v-169q0 -153 122 -153q73 0 117 28v294h-74v33h259v-33h-81v-624h81z" />
    <glyph glyph-name="uni0428" unicode="&#x428;" horiz-adv-x="963" 
d="M921 33v-33h-879v33h82v624h-82v33h254v-33h-65v-624h196v624h-73v33h246v-33h-65v-624h196v624h-65v33h255v-33h-82v-624h82z" />
    <glyph glyph-name="uni0429" unicode="&#x429;" horiz-adv-x="958" 
d="M939 33v-213h-32v32q0 84 -31.5 116t-114.5 32h-719v33h82v624h-82v33h254v-33h-65v-624h196v624h-73v33h246v-33h-65v-624h196v624h-65v33h255v-33h-82v-624h100z" />
    <glyph glyph-name="uni042A" unicode="&#x42a;" horiz-adv-x="675" 
d="M655 198q0 -56 -22.5 -96.5t-62 -61.5t-84 -30.5t-98.5 -9.5h-246v33h82v624h-33q-82 -1 -111 -31.5t-29 -112.5v-43h-32v220h421v-33h-109v-264h59q64 0 122 -18.5t100.5 -64.5t42.5 -112zM382 360h-51v-327h48q84 0 122 40.5t38 124.5q0 77 -40.5 119.5t-116.5 42.5z
" />
    <glyph glyph-name="uni042B" unicode="&#x42b;" horiz-adv-x="881" 
d="M288 0h-246v33h82v624h-82v33h298v-33h-109v-264h59q64 0 122 -18.5t100.5 -64.5t42.5 -112q0 -56 -22.5 -96.5t-62 -61.5t-84 -30.5t-98.5 -9.5zM282 360h-51v-327h48q84 0 122 40.5t38 124.5q0 77 -40.5 119.5t-116.5 42.5zM753 33h86v-33h-280v33h86v624h-86v33h280
v-33h-86v-624z" />
    <glyph glyph-name="uni042C" unicode="&#x42c;" horiz-adv-x="575" 
d="M288 0h-246v33h82v624h-82v33h298v-33h-109v-264h59q64 0 122 -18.5t100.5 -64.5t42.5 -112q0 -56 -22.5 -96.5t-62 -61.5t-84 -30.5t-98.5 -9.5zM282 360h-51v-327h48q84 0 122 40.5t38 124.5q0 77 -40.5 119.5t-116.5 42.5z" />
    <glyph glyph-name="uni042D" unicode="&#x42d;" horiz-adv-x="596" 
d="M271 -11q-99 0 -155 38l-40 -37h-17v234h32q0 -89 44 -145t131 -56q39 0 68.5 14t48 41t30.5 56t17.5 68.5t7.5 68t2 65.5h-271v32h271q-1 44 -3.5 77.5t-13 78t-28 73.5t-51 49.5t-78.5 20.5q-83 0 -126 -56t-43 -141h-32v230h17l40 -37q59 38 150 38q69 0 125 -31.5
t90.5 -83t52.5 -113.5t18 -127t-18.5 -127.5t-52.5 -114.5t-90.5 -83.5t-125.5 -31.5z" />
    <glyph glyph-name="uni042E" unicode="&#x42e;" horiz-adv-x="940" 
d="M901 346q0 -67 -16.5 -128.5t-49 -113.5t-87.5 -83.5t-125 -31.5q-90 0 -155 53t-93.5 129.5t-30.5 164.5h-113v-303h80v-33h-269v33h82v624h-82v33h269v-33h-80v-289h113q4 64 22 122t50.5 106t86 76.5t120.5 28.5q70 0 125 -31t87.5 -83t49 -113t16.5 -128zM623 668
q-86 0 -123 -76q-38 -78 -38 -246q0 -37 1.5 -63.5t5.5 -69t15 -72t28 -59t45.5 -45t65.5 -15.5q33 0 59 13t42.5 31t28 48.5t17.5 55.5t9 63t3.5 59t0.5 54q0 171 -37 246q-37 76 -123 76z" />
    <glyph glyph-name="uni042F" unicode="&#x42f;" horiz-adv-x="642" 
d="M208 511q0 -80 42 -115t123 -35h42v296h-39q-82 0 -125 -33.5t-43 -112.5zM117 -11q-29 0 -49.5 11t-31 25.5t-16 41t-6.5 45t-1 49.5h30q0 -65 9 -94q8 -30 29 -30q13 0 24 17q11 16 33 93q28 90 60 123t122 66q-56 1 -105.5 18.5t-85.5 58.5t-36 99q0 47 25.5 83
t66.5 56t85 29.5t87 9.5h243v-33h-82v-624h82v-33h-278v33h93v299h-27q-47 0 -78 -37q-30 -36 -62 -147q-16 -52 -24 -72q-33 -87 -107 -87z" />
    <glyph glyph-name="uni0430" unicode="&#x430;" horiz-adv-x="554" 
d="M441 -11q-99 0 -104 117q-16 -54 -59.5 -85.5t-100.5 -31.5q-61 0 -98.5 28.5t-37.5 86.5q0 30 16 55.5t35.5 40.5t55 29.5t55 20.5t54.5 15l72 19v70q0 120 -105 120q-56 0 -95 -35q53 -16 53 -66q0 -30 -17.5 -47t-47.5 -17q-29 0 -46.5 17.5t-17.5 46.5q0 45 34 78.5
t78.5 47.5t87.5 14q179 0 179 -149v-279q0 -25 9 -38q7 -13 25 -13q50 0 50 118h30q0 -34 -3 -58.5t-13 -50.5t-32.5 -40t-56.5 -14zM148 120q0 -35 18 -55t52 -20q42 0 68.5 28.5t34.5 63t8 76.5v41l-61 -18q-55 -15 -87.5 -41.5t-32.5 -74.5z" />
    <glyph glyph-name="uni0431" unicode="&#x431;" horiz-adv-x="572" 
d="M297 500q104 0 171 -71.5t67 -176.5q0 -103 -71 -183t-172 -80q-81 0 -138.5 46.5t-82.5 114t-25 146.5q0 83 11.5 146.5t40.5 121.5t85.5 94t138.5 46q92 9 95 9q20 2 32.5 6t24 15.5t11.5 29.5h30q0 -97 -60 -126q-13 -8 -33 -12q-26 -6 -111 -13q-97 -9 -147.5 -46.5
t-68.5 -125.5q-11 -53 -11 -120h6q14 81 70 130t137 49zM292 467q-135 0 -135 -215q0 -38 5.5 -73.5t18.5 -73t41.5 -60.5t69.5 -23q38 0 66.5 23.5t42.5 60.5t20 73.5t6 71.5q0 38 -5.5 72t-19 68.5t-42 55t-68.5 20.5z" />
    <glyph glyph-name="uni0432" unicode="&#x432;" horiz-adv-x="556" 
d="M250 0h-213v33h78v435h-78v33h213q43 0 74 -3t70.5 -14t61.5 -38t22 -68q0 -52 -35 -79t-90 -34q157 -14 157 -124q0 -32 -12 -56.5t-34.5 -39.5t-46.5 -24.5t-56.5 -13.5t-56.5 -5.5t-54 -1.5zM374 373q0 55 -35 75.5t-94 20.5h-27v-193h38q62 0 90 19.5t28 77.5z
M255 245h-37v-213h37q70 0 109 22.5t39 86.5q0 34 -11 56t-34 32t-45.5 13t-57.5 3z" />
    <glyph glyph-name="uni0433" unicode="&#x433;" horiz-adv-x="468" 
d="M218 33h117v-33h-298v33h78v436h-78v32h411v-182h-33v24q0 126 -109 126h-88v-436z" />
    <glyph glyph-name="uni0434" unicode="&#x434;" horiz-adv-x="573" 
d="M118 33h237v436h-159q0 -342 -78 -436zM544 469h-86v-436h89v-181h-33v25q0 123 -121 123h-231q-121 0 -121 -123v-25h-32v181h56q63 49 83 274q3 30 8 162h-78v32h466v-32z" />
    <glyph glyph-name="uni0435" unicode="&#x435;" horiz-adv-x="519" 
d="M282 -11q-111 0 -173.5 75.5t-62.5 188.5q0 108 60.5 184t165.5 76q104 0 155 -66t51 -173q0 -2 -0.5 -7t-1.5 -7h-322v-11q0 -44 4 -77t17 -70t42 -57t73 -20q61 0 96.5 33t54.5 95l31 -7q-16 -71 -66.5 -114t-123.5 -43zM270 479q-35 0 -58.5 -17t-35 -48.5t-15.5 -58
t-6 -62.5h218q2 98 -24 142t-79 44z" />
    <glyph glyph-name="uni0436" unicode="&#x436;" horiz-adv-x="882" 
d="M344 271h46v198h-58v32h219v-32h-58v-198h45q24 0 40 19t34 83q7 26 12 41.5t15.5 36.5t22.5 33t31 20.5t43 8.5q40 0 64 -22t24 -62q0 -30 -15.5 -48.5t-45.5 -18.5q-26 0 -44.5 16t-18.5 42q0 47 45 56q-4 2 -7 3q-35 0 -52 -20q-17 -22 -35 -87q-18 -62 -33 -85
t-37 -30q68 -23 105.5 -50t51.5 -83q0 -2 2.5 -10.5t4.5 -14.5l7 -28q6 -19 15 -26q7 -9 20 -9q39 0 39 116h30q0 -38 -3 -61.5t-12.5 -49.5t-32.5 -39t-59 -13q-55 0 -80.5 30t-41.5 90l-9 34q-8 32 -15 49t-25 33t-46 16h-39v-208h66v-33h-235v33h66v208h-39
q-48 0 -71 -46q-3 -5 -10 -29q-5 -16 -16 -57q-16 -60 -41 -90t-79 -30q-29 0 -49.5 9.5t-31.5 24t-17.5 38t-8 43t-1.5 48.5h30q0 -60 9 -88t31 -28q12 0 22 8q8 8 14 27q1 3 3.5 12.5t3.5 15.5q5 20 6 25q9 40 35 67t50.5 38.5t71.5 27.5q-22 7 -37 30q-14 22 -33 85
q-18 67 -35 87t-43 20q-12 0 -19 -5q49 -7 49 -54q0 -26 -17.5 -41.5t-44.5 -15.5q-31 0 -47.5 18.5t-16.5 50.5q0 37 25 59t63 22q60 0 90 -45q19 -24 37 -97q17 -65 32 -81q15 -19 39 -19z" />
    <glyph glyph-name="uni0437" unicode="&#x437;" horiz-adv-x="495" 
d="M453 139q0 -79 -62.5 -114.5t-148.5 -35.5q-47 0 -89 11t-76 42t-34 79q0 31 16.5 49.5t47.5 18.5q30 0 46 -16.5t16 -46.5q0 -25 -16.5 -40t-42.5 -19q30 -46 122 -46q115 0 115 121q0 58 -34 78t-98 20h-45v33h45q59 0 86 25t27 83q0 93 -99 93q-60 0 -88.5 -36
t-39.5 -102h-31v170h29l25 -38q54 45 137 45q74 0 122.5 -30.5t48.5 -99.5q0 -53 -36 -84t-92 -39q62 -7 105.5 -36t43.5 -85z" />
    <glyph glyph-name="uni0438" unicode="&#x438;" horiz-adv-x="652" 
d="M218 85v-52h79v-33h-260v33h78v436h-78v32h260v-32h-79v-328l217 279v49h-79v32h259v-32h-77v-436h77v-33h-259v33h79v331z" />
    <glyph glyph-name="uni0439" unicode="&#x439;" horiz-adv-x="652" 
d="M218 85v-52h79v-33h-260v33h78v436h-78v32h260v-32h-79v-328l217 279v49h-79v32h259v-32h-77v-436h77v-33h-259v33h79v331zM435 787q26 0 43 -17q15 -18 15 -46q0 -66 -49 -107t-116 -41t-116 41t-49 107q0 28 15.5 45.5t42.5 17.5q24 0 40 -14q14 -14 14 -37
q0 -25 -17 -39.5t-42 -14.5q-10 0 -24 3q39 -52 136 -52q103 0 140 53q-16 -4 -31 -4q-56 0 -56 54q0 24 15 37q14 14 39 14z" />
    <glyph glyph-name="uni043A" unicode="&#x43a;" horiz-adv-x="614" 
d="M486 -11q-53 0 -80.5 31.5t-41.5 88.5q-8 31 -15 50t-20 40t-33.5 31t-49.5 10h-28v-207h88v-33h-269v33h78v436h-78v32h251v-32h-70v-196h36q25 0 41 19q15 17 35 82q10 32 18 52t23 42.5t37 33.5t52 11q40 0 64.5 -23.5t24.5 -62.5q0 -30 -15.5 -49t-44.5 -19
q-28 0 -46.5 16.5t-18.5 44.5q0 22 14 37.5t36 20.5l-9 3q-3 1 -12 1q-27 0 -45 -20q-18 -19 -41 -89q-19 -56 -33 -79q-13 -22 -32 -33q116 -36 151 -85q12 -18 25 -65q0 -1 1.5 -8t3.5 -13q6 -24 7 -25q9 -29 32 -29q19 0 28 28q8 30 8 88h30q0 -34 -3 -58t-12 -50.5
t-31 -40.5t-56 -14z" />
    <glyph glyph-name="uni043B" unicode="&#x43b;" horiz-adv-x="591" 
d="M290 33h83v436h-139q0 -125 -1 -166q-6 -210 -41 -269q-29 -45 -91 -45q-42 0 -67 26t-25 68q0 30 17.5 50.5t47.5 20.5q27 0 44 -15t17 -42q0 -29 -19 -43.5t-49 -14.5q5 -8 15 -11q9 -4 25 -4q39 0 59 45q19 45 24 158q1 32 3 82v160h-84v32h444v-32h-77v-436h77v-33
h-263v33z" />
    <glyph glyph-name="uni043C" unicode="&#x43c;" horiz-adv-x="770" 
d="M157 448v-415h84v-33h-204v33h78v436h-78v32h203l147 -310l149 310h197v-32h-78v-436h78v-33h-262v33h81v414l-187 -395h-27z" />
    <glyph glyph-name="uni043D" unicode="&#x43d;" horiz-adv-x="651" 
d="M218 245v-212h75v-33h-256v33h78v436h-78v32h256v-32h-75v-192h216v192h-75v32h255v-32h-77v-436h77v-33h-255v33h75v212h-216z" />
    <glyph glyph-name="uni043E" unicode="&#x43e;" horiz-adv-x="568" 
d="M283 513q107 0 173 -77t66 -186q0 -108 -66.5 -184.5t-172.5 -76.5q-108 0 -172.5 75t-64.5 186t64 187t173 76zM283 479q-43 0 -71 -21.5t-39.5 -60.5t-15 -71t-3.5 -76q0 -34 1.5 -59.5t9 -59.5t20.5 -56t38 -37.5t60 -15.5q131 0 131 228q0 229 -131 229z" />
    <glyph glyph-name="uni043F" unicode="&#x43f;" horiz-adv-x="631" 
d="M218 469v-436h70v-33h-251v33h78v436h-78v32h557v-32h-77v-436h77v-33h-250v33h70v436h-196z" />
    <glyph glyph-name="uni0440" unicode="&#x440;" horiz-adv-x="616" 
d="M341 24q33 0 56.5 16.5t35.5 38.5t19 57t8.5 58.5t1.5 56.5q1 115 -28 171q-29 53 -91 53q-36 0 -62.5 -21.5t-39 -56t-18 -67.5t-5.5 -67v-58q0 -38 4.5 -66.5t16.5 -56.5t38 -43t64 -15zM218 58v-271h111v-37h-292v37h78v677h-78v37q73 0 105 3q31 1 45 11l14 -9v-146
q9 69 52.5 111t111.5 42q65 0 113.5 -40.5t70 -98t21.5 -121.5q0 -105 -59 -184.5t-161 -79.5q-87 0 -132 69z" />
    <glyph glyph-name="uni0441" unicode="&#x441;" horiz-adv-x="490" 
d="M426 153l32 -7q-16 -74 -62.5 -115.5t-120.5 -41.5q-110 0 -169 73t-59 186q0 115 62 190t175 75q72 0 119.5 -38.5t47.5 -109.5q0 -30 -17 -49t-46 -19q-31 0 -49 17t-18 47t19.5 47.5t50.5 21.5q-24 50 -102 50q-30 0 -53 -10t-37 -29.5t-23.5 -41t-13.5 -50t-5.5 -51
t-1.5 -50.5q0 -38 5 -71.5t17 -70.5t39.5 -59t66.5 -22q60 0 93.5 33t49.5 95z" />
    <glyph glyph-name="uni0442" unicode="&#x442;" horiz-adv-x="505" 
d="M304 33h87v-33h-277v33h87v436h-42q-58 0 -82 -31.5t-24 -92.5v-25h-33v181h465v-181h-32v25q0 61 -24.5 92t-82.5 32h-42v-436z" />
    <glyph glyph-name="uni0443" unicode="&#x443;" horiz-adv-x="533" 
d="M122 -260q-47 0 -75 30.5t-28 78.5q0 33 17.5 53.5t49.5 20.5q29 0 44.5 -16.5t15.5 -45.5q0 -59 -72 -63q16 -23 48 -23q36 0 61 37q27 39 67 154l11 31l-194 472h-74v32h265v-32h-89l137 -338l125 338h-77v32h186v-32h-65l-176 -484q-57 -159 -91 -201q-35 -44 -86 -44
z" />
    <glyph glyph-name="uni0444" unicode="&#x444;" horiz-adv-x="804" 
d="M154 256q0 -227 103 -227q29 0 49 22t29 56.5t12.5 63t3.5 55.5v54q0 27 -3.5 55t-12.5 61.5t-29 54.5t-49 21q-33 0 -55.5 -23.5t-31.5 -61.5t-12.5 -68.5t-3.5 -62.5zM553 29q97 0 97 227q0 216 -97 216q-31 0 -52 -20t-30.5 -53t-13 -61.5t-3.5 -57.5v-54q0 -28 4 -57
t13.5 -63t30.5 -55.5t51 -21.5zM437 123q3 -223 77 -377l-10 -10q-8 5 -54.5 67t-49.5 72q-3 -10 -48 -72.5t-52 -66.5l-9 10q73 158 76 377q-12 -62 -40 -98t-84 -36q-62 0 -108.5 44t-67.5 103.5t-21 119.5q0 44 11.5 88t34 82.5t60.5 62.5t85 24q104 0 130 -140
q-3 220 -76 382l9 10q8 -4 55 -66.5t50 -72.5q3 10 47.5 72.5t51.5 66.5l10 -10q-74 -178 -77 -382q26 140 131 140q62 0 107 -42t64 -98.5t19 -116.5q0 -61 -18.5 -119.5t-63.5 -103t-108 -44.5q-105 0 -131 134z" />
    <glyph glyph-name="uni0445" unicode="&#x445;" horiz-adv-x="530" 
d="M197 33v-33h-201v33h73l150 211l-154 225h-59v32h235v-32h-69l113 -163l113 163h-70v32h185v-32h-68l-137 -195l167 -241h54v-33h-242v33h78l-121 175l-123 -175h76z" />
    <glyph glyph-name="uni0446" unicode="&#x446;" horiz-adv-x="649" 
d="M534 33h89v-181h-33v25q0 123 -122 123h-431v33h78v436h-78v32h255v-32h-74v-436h213v436h-74v32h254v-32h-77v-436z" />
    <glyph glyph-name="uni0447" unicode="&#x447;" horiz-adv-x="590" 
d="M475 33h77v-33h-289v33h109v208q-50 -36 -126 -36q-172 0 -172 154v110h-68v32h236v-32h-65v-110q0 -115 99 -115q58 0 96 32v193h-65v32h245v-32h-77v-436z" />
    <glyph glyph-name="uni0448" unicode="&#x448;" horiz-adv-x="873" 
d="M835 33v-33h-798v33h78v436h-78v32h233v-32h-52v-436h167v436h-61v32h224v-32h-60v-436h167v436h-52v32h232v-32h-77v-436h77z" />
    <glyph glyph-name="uni0449" unicode="&#x449;" horiz-adv-x="873" 
d="M758 33h89v-181h-33v25q0 123 -122 123h-655v33h78v436h-78v32h233v-32h-52v-436h167v436h-61v32h224v-32h-60v-436h167v436h-52v32h232v-32h-77v-436z" />
    <glyph glyph-name="uni044A" unicode="&#x44a;" horiz-adv-x="625" 
d="M597 146q0 -56 -36.5 -90.5t-82 -45t-100.5 -10.5h-248v33h77v436h-36q-118 0 -118 -124v-25h-33v181h383v-32h-93v-181h68q40 0 74.5 -6t69.5 -20.5t55 -44t20 -71.5zM369 256h-59v-223h60q120 0 120 114q0 60 -30 84.5t-91 24.5z" />
    <glyph glyph-name="uni044B" unicode="&#x44b;" horiz-adv-x="795" 
d="M311 469h-93v-181h68q40 0 74.5 -6t69 -20.5t54.5 -44t20 -71.5t-20 -72t-53.5 -45.5t-69 -22t-75.5 -6.5h-249v33h78v436h-78v32h274v-32zM276 256h-58v-223h59q120 0 120 114q0 61 -29 85t-92 24zM757 33v-33h-255v33h75v436h-84v32h264v-32h-77v-436h77z" />
    <glyph glyph-name="uni044C" unicode="&#x44c;" horiz-adv-x="532" 
d="M311 469h-93v-181h68q40 0 74.5 -6t69 -20.5t54.5 -44t20 -71.5t-20 -72t-53.5 -45.5t-69 -22t-75.5 -6.5h-249v33h78v436h-78v32h274v-32zM276 256h-58v-223h59q120 0 120 114q0 61 -29 85t-92 24z" />
    <glyph glyph-name="uni044D" unicode="&#x44d;" horiz-adv-x="505" 
d="M458 263q0 -116 -64 -195t-178 -79q-71 0 -124 32.5t-53 98.5q0 31 17.5 49.5t47.5 18.5t47 -17t17 -47q0 -56 -63 -65q29 -38 101 -38q36 0 62.5 14.5t41.5 35.5t24.5 53.5t12.5 59.5t4 62h-187v33h187q-2 195 -132 195q-103 0 -127 -143h-31v175h29l25 -34
q44 41 115 41q102 0 165 -73.5t63 -176.5z" />
    <glyph glyph-name="uni044E" unicode="&#x44e;" horiz-adv-x="821" 
d="M775 253q0 -109 -63 -186.5t-170 -77.5q-103 0 -166 75.5t-65 180.5h-85v-212h67v-33h-247v33h78v436h-78v32h247v-32h-67v-192h86q7 102 68.5 169t161.5 67q106 0 169.5 -75.5t63.5 -184.5zM418 253q0 -28 1 -48t4.5 -50t11.5 -50.5t21 -40.5t35 -30.5t51 -10.5
q41 0 68.5 22.5t38.5 62t14.5 71.5t3.5 74q0 26 -1 47t-5 49.5t-12.5 49.5t-22 40.5t-35 29.5t-49.5 10q-29 0 -51 -10t-35 -29.5t-21.5 -39t-11.5 -49.5t-4 -49.5t-1 -48.5z" />
    <glyph glyph-name="uni044F" unicode="&#x44f;" horiz-adv-x="582" 
d="M314 268h51v201h-48q-54 0 -90.5 -26t-36.5 -77q0 -50 36 -74t88 -24zM254 189q-6 -8 -13 -26q-2 -6 -22 -69q-16 -52 -39.5 -78.5t-70.5 -26.5q-27 0 -45.5 10.5t-28.5 25t-15 39.5t-6 42.5t-1 45.5h30q0 -116 36 -116q11 0 17 10q6 9 24 68q17 52 38 72q22 22 102 59
q-42 1 -79.5 11.5t-67.5 39.5t-30 72q0 39 22 67t58.5 41.5t71 19t71.5 5.5h239v-32h-77v-436h77v-33h-264v33h84v206h-30q-55 0 -81 -50z" />
    <glyph glyph-name="uni0451" unicode="&#x451;" horiz-adv-x="519" 
d="M282 -11q-111 0 -173.5 75.5t-62.5 188.5q0 108 60.5 184t165.5 76q104 0 155 -66t51 -173q0 -2 -0.5 -7t-1.5 -7h-322v-11q0 -44 4 -77t17 -70t42 -57t73 -20q61 0 96.5 33t54.5 95l31 -7q-16 -71 -66.5 -114t-123.5 -43zM270 479q-35 0 -58.5 -17t-35 -48.5t-15.5 -58
t-6 -62.5h218q2 98 -24 142t-79 44zM237 670q0 -28 -18 -47.5t-46 -19.5q-29 0 -46.5 19t-17.5 48q0 30 17 49t47 19q29 0 46.5 -19.5t17.5 -48.5zM429 670q0 -28 -18 -47.5t-46 -19.5t-45.5 19.5t-17.5 47.5q0 30 17 49t46 19t46.5 -19.5t17.5 -48.5z" />
    <glyph glyph-name="uni0453" unicode="&#x453;" horiz-adv-x="468" 
d="M218 33h117v-33h-298v33h78v436h-78v32h411v-182h-33v24q0 126 -109 126h-88v-436zM428 713l-200 -123h-30l102 131q21 27 59 27h66q26 0 27 -10q0 -12 -24 -25z" />
    <glyph glyph-name="uni045E" unicode="&#x45e;" horiz-adv-x="533" 
d="M122 -260q-47 0 -75 30.5t-28 78.5q0 33 17.5 53.5t49.5 20.5q29 0 44.5 -16.5t15.5 -45.5q0 -59 -72 -63q16 -23 48 -23q36 0 61 37q27 39 67 154l11 31l-194 472h-74v32h265v-32h-89l137 -338l125 338h-77v32h186v-32h-65l-176 -484q-57 -159 -91 -201q-35 -44 -86 -44
zM403 787q26 0 43 -17q15 -18 15 -46q0 -66 -49 -107t-116 -41t-116 41t-49 107q0 28 15.5 45.5t42.5 17.5q24 0 40 -14q14 -14 14 -37q0 -25 -17 -39.5t-42 -14.5q-10 0 -24 3q39 -52 136 -52q103 0 140 53q-16 -4 -31 -4q-56 0 -56 54q0 24 15 37q14 14 39 14z" />
    <glyph glyph-name="uni0490" unicode="&#x490;" horiz-adv-x="516" 
d="M231 33h135v-33h-324v33h82v624h-82v33h267q84 0 119 30.5t35 113.5v35h33v-212h-265v-624z" />
    <glyph glyph-name="uni2013" unicode="&#x2013;" horiz-adv-x="576" 
d="M531 326v-36h-486v36h486z" />
    <glyph glyph-name="_263" horiz-adv-x="500" 
d="M296 713l-200 -123h-30l102 131q21 27 59 27h66q26 0 27 -10q0 -12 -24 -25z" />
    <glyph glyph-name="_264" horiz-adv-x="379" 
d="M221 721l84 -131h-30l-182 123q-20 14 -17 24q3 11 28 11h66q19 0 31 -6q11 -6 20 -21z" />
    <glyph glyph-name="_265" horiz-adv-x="500" 
d="M213 714l-120 -124h-30l45 132q3 12 15 20q12 6 34 6h44q25 0 29 -7q3 -7 -17 -27zM404 714l-201 -124h-31l105 132q10 12 25 20q15 6 34 6h66q26 0 26 -10t-24 -24z" />
    <glyph glyph-name="_266" horiz-adv-x="388" 
d="M316 581l-120 75l-119 -75h-32l138 172h27l133 -172h-27z" />
    <glyph glyph-name="_267" horiz-adv-x="388" 
d="M316 753h27l-128 -172h-27l-143 172h32l125 -76z" />
    <glyph glyph-name="_268" horiz-adv-x="455" 
d="M367 760h25q0 -127 -93 -127q-22 0 -43 9q-19 7 -54 34q-27 21 -39 26q-13 6 -27 6q-47 0 -47 -69h-25q0 127 90 127q25 0 49 -8q23 -9 55 -34q29 -22 38 -25q14 -6 27 -6q44 0 44 67z" />
    <glyph glyph-name="_269" horiz-adv-x="312" 
d="M278 719v-47h-244v47h244z" />
    <glyph glyph-name="_270" horiz-adv-x="437" 
d="M186 698q0 -28 -18 -47.5t-46 -19.5q-29 0 -46.5 19t-17.5 48q0 30 17 49t47 19q29 0 46.5 -19.5t17.5 -48.5zM378 698q0 -28 -18 -47.5t-46 -19.5t-45.5 19.5t-17.5 47.5q0 30 17 49t46 19t46.5 -19.5t17.5 -48.5z" />
    <glyph glyph-name="_271" horiz-adv-x="249" 
d="M121 766q32 0 51.5 -18t19.5 -50q0 -30 -20 -49t-51 -19t-51 19t-20 49q0 32 19.5 50t51.5 18z" />
    <glyph glyph-name="_272" horiz-adv-x="278" 
d="M139 766q38 0 62 -23.5t24 -61.5q0 -37 -24.5 -60.5t-61.5 -23.5t-61.5 23.5t-24.5 60.5q0 39 23.5 62t62.5 23zM140 725q-20 0 -31 -12t-11 -32q0 -45 42 -45q20 0 32 13q11 14 11 32q0 17 -11 31q-12 13 -32 13z" />
    <glyph glyph-name="_273" horiz-adv-x="486" 
d="M347 -132q0 -74 -104 -74q-82 0 -110 46l17 15q9 -12 27 -20q16 -6 38 -6q55 0 55 44q0 49 -84 49l-4 11l47 73h36l-37 -56q44 0 81.5 -20.5t37.5 -61.5z" />
    <glyph glyph-name="_279" horiz-adv-x="327" 
 />
    <glyph glyph-name="_280" horiz-adv-x="338" 
d="M270 835l-182 -95h-30l75 103q21 27 59 27h75q26 0 27 -10q0 -12 -24 -25z" />
    <glyph glyph-name="_281" horiz-adv-x="358" 
d="M229 843l75 -102h-30l-183 94q-20 11 -17 23q2 12 28 12h76q17 0 29 -5q10 -6 22 -22z" />
    <glyph glyph-name="_282" horiz-adv-x="500" 
d="M219 836l-102 -96h-30l37 104q6 26 49 26h34q26 0 29 -8t-17 -26zM410 836l-183 -96h-32l94 104q21 26 59 26h60q27 0 27 -10q-2 -11 -25 -24z" />
    <glyph glyph-name="_283" horiz-adv-x="502" 
d="M363 959q28 0 43 -17t15 -45q0 -66 -51 -105.5t-119 -39.5t-119.5 39.5t-51.5 105.5q0 28 15.5 45t42.5 17q24 0 40 -14q14 -14 14 -37q0 -24 -16.5 -39.5t-40.5 -15.5q-10 0 -22 3q28 -49 138 -49q116 0 142 50q-20 -4 -28 -4q-26 0 -40.5 14.5t-14.5 40.5q0 24 15 37
q14 14 38 14z" />
    <glyph glyph-name="_284" horiz-adv-x="472" 
d="M355 767q26 0 43 -17q15 -18 15 -46q0 -66 -49 -107t-116 -41t-116 41t-49 107q0 28 15.5 45.5t42.5 17.5q24 0 40 -14q14 -14 14 -37q0 -25 -17 -39.5t-42 -14.5q-10 0 -24 3q39 -52 136 -52q103 0 140 53q-16 -4 -31 -4q-56 0 -56 54q0 24 15 37q14 14 39 14z" />
    <glyph glyph-name="uni0401.1" 
 />
    <glyph glyph-name="uni0451.1" horiz-adv-x="519" 
 />
    </font>
</defs>
</svg>
